<?xml version="1.0" encoding="UTF-8" standalone="no"?>
<!-- Created with Inkscape (http://www.inkscape.org/) -->

<svg
   version="1.0"
   width="512"
   height="512"
   id="svg2424"
   sodipodi:docname="arch.svg"
   inkscape:version="1.3.2 (091e20ef0f, 2023-11-25)"
   xmlns:inkscape="http://www.inkscape.org/namespaces/inkscape"
   xmlns:sodipodi="http://sodipodi.sourceforge.net/DTD/sodipodi-0.dtd"
   xmlns="http://www.w3.org/2000/svg"
   xmlns:svg="http://www.w3.org/2000/svg">
  <sodipodi:namedview
     id="namedview1"
     pagecolor="#f0446b"
     bordercolor="#000000"
     borderopacity="0.25"
     inkscape:showpageshadow="2"
     inkscape:pageopacity="0.0"
     inkscape:pagecheckerboard="0"
     inkscape:deskcolor="#d1d1d1"
     inkscape:zoom="0.65166667"
     inkscape:cx="70.588235"
     inkscape:cy="250.12788"
     inkscape:window-width="1906"
     inkscape:window-height="1036"
     inkscape:window-x="0"
     inkscape:window-y="0"
     inkscape:window-maximized="1"
     inkscape:current-layer="svg2424" />
  <defs
     id="defs2426" />
  <path
     d="M 255.95176,-4.274792e-6 C 235.96003,49.152601 216.75484,98.67209 194.03421,146.65712 c 19.80226,21.36322 41.71492,40.79789 65.67298,57.39166 C 233.72754,193.30628 208.26775,180.40882 186.61971,162.2569 128.79032,281.14542 63.896658,396.40963 -1.092192e-7,512.09632 63.896894,475.83229 129.8657,439.61353 202.70067,425.33433 c -8.81433,-40.92503 -3.60488,-91.84988 31.23374,-119.46819 22.05276,-16.90504 52.44213,-1.68359 63.77882,20.61483 17.55091,29.52958 20.86528,66.00198 13.99319,99.2388 71.92212,14.65534 137.0834,50.48572 200.29358,86.37655 -14.50738,-26.70378 -28.9106,-53.46393 -43.3328,-80.21376 -27.59874,-22.84612 -56.0978,-45.05708 -88.39884,-60.95472 22.24873,3.20115 57.14578,22.07283 68.89044,24.75818 C 381.516,269.53697 313.6703,143.11917 260.25001,10.107258 l -2.12473,-5.0011834 z"
     id="arch"
     class="bright-fill"
     inkscape:label="Arch"
     style="stroke-width:0.874636" />
</svg>
