<?xml version="1.0" encoding="UTF-8" standalone="no"?>
<!-- Source: https://github.com/ublue-os/bazzite/blob/main/press_kit/Bazzite_Color.svg -->
<!-- Cleaned up with Inkscape -->

<svg
   width="500"
   height="500"
   viewBox="0 0 500 500"
   fill="none"
   version="1.1"
   id="bazzite-logo"
   xmlns="http://www.w3.org/2000/svg"
   xmlns:svg="http://www.w3.org/2000/svg">
  <path
     id="blob"
     class="dim-fill"
     d="M 0,100 C 0,44.7715 44.7715,0 100,0 h 150 c 138.071,0 250,111.929 250,250 v 0 c 0,138.071 -111.929,250 -250,250 v 0 C 111.929,500 0,388.071 0,250 Z" />
  <path
     id="letter-b-line"
     fill-rule="evenodd"
     clip-rule="evenodd"
     class="medium-fill"
     d="m 128,0 h 64 V 128 H 326.185 C 382.416,128 428,173.584 428,229.815 428,339.269 339.27,428 229.815,428 173.584,428 128,382.416 128,326.185 V 192 H 0 v -64 h 128 z m 64,192 V 326.185 C 192,347.07 208.93,364 229.815,364 303.923,364 364,303.923 364,229.815 364,208.93 347.07,192 326.185,192 Z" />
  <path
     id="dpad" 
     class="bright-fill"
     d="M 192,60 C 192,43.4315 178.569,30 162,30 h -4 c -16.569,0 -30,13.4315 -30,30 v 68 H 60 c -16.5685,0 -30,13.431 -30,30 v 4 c 0,16.569 13.4315,30 30,30 h 68 v 68 c 0,16.569 13.431,30 30,30 h 4 c 16.569,0 30,-13.431 30,-30 v -68 h 68 c 16.569,0 30,-13.431 30,-30 v -4 c 0,-16.569 -13.431,-30 -30,-30 h -68 z" />
  <path
     id="arrow-right"
     class="dim-fill"
     d="m 262.5,155.67 c 3.333,1.924 3.333,6.736 0,8.66 l -21,12.124 c -3.333,1.925 -7.5,-0.481 -7.5,-4.33 v -24.248 c 0,-3.849 4.167,-6.255 7.5,-4.33 z" />
  <path
     id="arrow-down"
     class="dim-fill"
     d="m 164.33,262.5 c -1.924,3.333 -6.736,3.333 -8.66,0 l -12.124,-21 c -1.925,-3.333 0.481,-7.5 4.33,-7.5 h 24.248 c 3.849,0 6.255,4.167 4.33,7.5 z" />
  <path
     id="arrow-up"
     class="dim-fill"
     d="m 155.67,57.5 c 1.924,-3.333 6.736,-3.333 8.66,0 l 12.124,21 c 1.925,3.333 -0.481,7.5 -4.33,7.5 h -24.248 c -3.849,0 -6.255,-4.167 -4.33,-7.5 z" />
  <path
     id="arrow-left" 
     class="dim-fill"
     d="m 57.5,164.33 c -3.333,-1.924 -3.333,-6.736 0,-8.66 l 21,-12.124 c 3.333,-1.925 7.5,0.481 7.5,4.33 v 24.248 c 0,3.849 -4.167,6.255 -7.5,4.33 z" />
</svg>
