<?xml version="1.0" encoding="UTF-8" standalone="no"?>
<svg
   width="600"
   height="600"
   viewBox="0 0 600 600"
   fill="none"
   version="1.1"
   id="bazzite-bw-logo"
   xmlns="http://www.w3.org/2000/svg"
   xmlns:svg="http://www.w3.org/2000/svg">
  <defs
     id="bazzite-logo" />
  <path
     fill-rule="evenodd"
     clip-rule="evenodd"
     d="M 119.99972,0.02988847 C 53.725525,0.02988847 -2.7417207e-4,53.753427 -2.7417207e-4,120.02483 v 110.39536 69.59707 c 0,165.67824 134.31481417207,299.98738 299.99999417207,299.98738 165.6852,0 300.00001,-134.30914 300.00001,-299.98738 0,-165.67823 -134.31481,-299.98737153 -300.00001,-299.98737153 H 230.39973 V 153.62342 h 161.02199 c 67.47721,0 122.17801,54.69849 122.17801,122.17287 0,131.33927 -106.47601,237.81198 -237.822,237.81198 -67.47721,0 -122.17801,-54.6985 -122.17801,-122.17285 V 230.42019 H -2.7417207e-4 V 153.62342 H 153.59972 V 0.02988847 Z M 230.39973,391.43542 V 230.42019 h 161.02199 c 25.062,0 45.378,20.31515 45.378,45.3761 0,88.92585 -72.09239,161.01523 -161.02199,161.01523 -25.062,0 -45.378,-20.31515 -45.378,-45.3761 z"
     class="bright-fill"
     id="background-blob" />
  <path
     d="M 153.59972,18.02913 H 135.59973 V 36.028374 135.62419 H 35.999725 17.999726 v 17.99923 76.79677 17.99925 h 17.999999 99.600005 v 99.5958 17.99925 h 17.99999 76.80001 17.99999 v -17.99925 -99.5958 h 99.60001 18 v -17.99925 -76.79677 -17.99923 h -18 -99.60001 V 36.028374 18.02913 h -17.99999 z"
     class="bright-stroke"
     stroke-width="35.9993"
     id="dpad-border" />
  <path
     d="m 314.99973,186.82603 c 3.99958,2.30869 3.99958,8.08285 0,10.39155 l -25.20001,14.54819 c -3.99959,2.30991 -8.99999,-0.57718 -8.99999,-5.19577 v -29.09638 c 0,-4.6186 5.0004,-7.50568 8.99999,-5.19578 z"
     class="bright-fill"
     id="arrow-right" />
  <path
     d="m 197.19572,315.01664 c -2.30879,3.99943 -8.0832,3.99943 -10.39199,0 l -14.5488,-25.19894 c -2.31001,-3.99944 0.5772,-8.99962 5.196,-8.99962 h 29.09759 c 4.6188,0 7.506,5.00018 5.196,8.99962 z"
     class="bright-fill"
     id="arrow-down" />
  <path
     d="m 186.80373,69.026985 c 2.30879,-3.999433 8.0832,-3.999433 10.39199,0 l 14.5488,25.198939 c 2.31,3.999433 -0.5772,8.999616 -5.196,8.999616 h -29.09759 c -4.6188,0 -7.50601,-5.000183 -5.196,-8.999616 z"
     class="bright-fill"
     id="arrow-up" />
  <path
     d="m 68.999725,197.21758 c -3.999599,-2.3087 -3.999599,-8.08286 0,-10.39155 l 25.2,-14.54819 c 3.9996,-2.3099 9.000005,0.57718 9.000005,5.19578 V 206.57 c 0,4.61859 -5.000405,7.50568 -9.000005,5.19577 z"
     class="bright-fill"
     id="arrow-left" />
</svg>
