<?xml version="1.0" encoding="UTF-8" standalone="no"?>
<!-- Source: https://gitlab.com/fedora/design/team/logos/fedora-project-logos/-/blob/main/brand-book-assets/logo-svgs/fedora_white-and-blue-f-white-text.svg?plain=0 -->
<!-- Cleaned up with Inkscape -->

<svg
   width="100mm"
   height="100mm"
   viewBox="0 0 100 100"
   version="1.1"
   id="fedora-logo"
   xmlns="http://www.w3.org/2000/svg"
   xmlns:svg="http://www.w3.org/2000/svg">

   <!-- Using a circle for the letter f because the <path> in the source SVG was leaving tiny dark pixels in between the
   background blob and the f. -->
   <circle id="letter-f-fill" r="45" cx="50" cy="50" class="bright-fill" />

  <path
     id="blob"
     class="dim-fill"
     d="M 50.004675,0 C 22.3996,0 0.02739394,22.364238 0.00938752,49.962714 H 0 v 38.70007 H 0.00938752 C 0.01877504,94.928283 5.0993081,100 11.368101,100 h 0.05457 0.0094 38.593996 C 77.634212,99.982297 100,77.610826 100,50.00531 100,22.388119 77.622283,0 50.004753,0 Z m 10.133308,20.575352 c 8.396449,0 16.324138,6.433594 16.324138,15.301046 0,0.822396 -0.004,1.645788 -0.138589,2.578601 -0.232236,2.359286 -2.383424,4.05119 -4.731028,3.7187 -2.347506,-0.336773 -3.93997,-2.558945 -3.505622,-4.890775 0.03872,-0.266367 0.05458,-0.688214 0.05458,-1.406526 0,-5.027596 -4.111495,-6.968556 -8.002178,-6.968556 -3.888401,0 -7.39625,3.269629 -7.405567,6.968556 0.06712,4.278834 0,8.526866 0,12.797018 l 7.213721,-0.05281 c 5.63419,-0.116762 5.697339,8.375492 0.06373,8.332429 l -7.277686,0.0528 c -0.02402,3.441476 0.02875,2.816511 0.0094,4.549775 0,0 0.06226,4.203676 -0.06373,7.394805 -0.870968,9.372084 -8.847987,16.867273 -18.433881,16.867273 -10.160297,0 -18.540476,-8.312362 -18.540476,-18.497571 0.305094,-10.477858 8.668634,-18.712543 19.190425,-18.614796 l 5.860466,-0.04107 v 8.321751 l -5.860466,0.0528 H 34.8518 c -5.782889,0.17073 -10.73117,4.089618 -10.82589,10.282308 0,5.642765 4.560137,10.165201 10.218517,10.165201 5.649017,0 10.165267,-4.114321 10.165267,-10.154465 0.06419,-10.016996 -0.04342,-21.082213 -0.0094,-31.48644 0.003,-0.584365 0.03404,-1.049394 0.09605,-1.694192 0.953908,-7.703002 7.844364,-13.574878 15.64223,-13.574878 z" />
</svg>
