<?xml version="1.0" encoding="UTF-8" standalone="no"?>
<!-- Created with Inkscape (http://www.inkscape.org/) -->

<svg
   width="512"
   height="512"
   viewBox="0 0 512 512"
   version="1.1"
   id="svg5"
   sodipodi:docname="linux-mint.svg"
   inkscape:version="1.3.2 (091e20ef0f, 2023-11-25)"
   xmlns:inkscape="http://www.inkscape.org/namespaces/inkscape"
   xmlns:sodipodi="http://sodipodi.sourceforge.net/DTD/sodipodi-0.dtd"
   xmlns="http://www.w3.org/2000/svg"
   xmlns:svg="http://www.w3.org/2000/svg"
   xmlns:rdf="http://www.w3.org/1999/02/22-rdf-syntax-ns#"
   xmlns:cc="http://creativecommons.org/ns#"
   xmlns:dc="http://purl.org/dc/elements/1.1/">
  <metadata
     id="metadata19">
    <rdf:RDF>
      <cc:Work
         rdf:about="">
        <dc:format>image/svg+xml</dc:format>
        <dc:type
           rdf:resource="http://purl.org/dc/dcmitype/StillImage" />
      </cc:Work>
    </rdf:RDF>
  </metadata>
  <sodipodi:namedview
     pagecolor="#ff41b1"
     bordercolor="#666666"
     borderopacity="1"
     objecttolerance="10"
     gridtolerance="10"
     guidetolerance="10"
     inkscape:pageopacity="0"
     inkscape:pageshadow="2"
     inkscape:window-width="1290"
     inkscape:window-height="974"
     id="namedview17"
     showgrid="false"
     inkscape:zoom="0.98994949"
     inkscape:cx="261.12443"
     inkscape:cy="268.70058"
     inkscape:window-x="0"
     inkscape:window-y="0"
     inkscape:window-maximized="1"
     inkscape:current-layer="svg5"
     inkscape:showpageshadow="2"
     inkscape:pagecheckerboard="0"
     inkscape:deskcolor="#d1d1d1" />
  <defs
     id="defs2" />
  <circle
     style="stroke-opacity:1;fill-opacity:1;stroke-width:40;stroke-miterlimit:4;stroke-dasharray:none"
     class="bright-stroke dim-fill"
     id="path32"
     cx="256"
     cy="256"
     r="236"
     inkscape:label="Background" />
  <path
     style="stroke-opacity:1;color:#000000;fill-opacity:1;stroke-width:0;-inkscape-stroke:none"
     class="bright-fill"
     d="m 116.00001,126.00001 v 180.00002 c 0,43.94584 36.05416,80 80,80 h 120.00002 c 43.94584,0 79.99999,-36.05416 79.99999,-80 v -100 c 0,-32.90018 -27.09983,-60.00002 -59.99999,-60.00002 -15.36989,0 -29.33356,6.07524 -40.00001,15.73245 -10.66643,-9.65721 -24.63012,-15.73245 -39.99999,-15.73245 -32.90017,0 -60.00002,27.09984 -60.00002,60.00002 v 100 h 40.00002 v -100 c 0,-11.28257 8.71744,-20.00001 20,-20.00001 11.28256,0 19.99999,8.71744 19.99999,20.00001 v 100 h 40.00001 v -100 c 0,-11.28257 8.71744,-20.00001 20,-20.00001 11.28256,0 20,8.71744 20,20.00001 v 100 c 0,22.32828 -17.67173,39.99999 -40,39.99999 H 196.00001 c -22.32828,0 -39.99999,-17.67171 -39.99999,-39.99999 V 126.00001 Z"
     id="path4193"
     inkscape:label="Lettering" />
</svg>
