<?xml version="1.0" encoding="UTF-8" standalone="no"?>
<svg
   height="512"
   width="512"
   id="svg14"
   version="1.1"
   viewBox="0 0 512 512"
   sodipodi:docname="pop-os.svg"
   inkscape:version="1.3.2 (091e20ef0f, 2023-11-25)"
   xmlns:inkscape="http://www.inkscape.org/namespaces/inkscape"
   xmlns:sodipodi="http://sodipodi.sourceforge.net/DTD/sodipodi-0.dtd"
   xmlns="http://www.w3.org/2000/svg"
   xmlns:svg="http://www.w3.org/2000/svg"
   xmlns:rdf="http://www.w3.org/1999/02/22-rdf-syntax-ns#"
   xmlns:cc="http://creativecommons.org/ns#"
   xmlns:dc="http://purl.org/dc/elements/1.1/">
  <sodipodi:namedview
     pagecolor="#ffffff"
     bordercolor="#666666"
     borderopacity="1"
     objecttolerance="10"
     gridtolerance="10"
     guidetolerance="10"
     inkscape:pageopacity="0"
     inkscape:pageshadow="2"
     inkscape:window-width="1920"
     inkscape:window-height="1080"
     id="namedview11"
     showgrid="false"
     inkscape:zoom="0.8468512"
     inkscape:cx="338.31209"
     inkscape:cy="237.34984"
     inkscape:window-x="0"
     inkscape:window-y="0"
     inkscape:window-maximized="1"
     inkscape:current-layer="svg14"
     inkscape:showpageshadow="2"
     inkscape:pagecheckerboard="0"
     inkscape:deskcolor="#d1d1d1" />
  <metadata
     id="metadata20">
    <rdf:RDF>
      <cc:Work
         rdf:about="">
        <dc:format>image/svg+xml</dc:format>
        <dc:type
           rdf:resource="http://purl.org/dc/dcmitype/StillImage" />
      </cc:Work>
    </rdf:RDF>
  </metadata>
  <defs
     id="defs18" />
  <path
     class="bright-fill"
     id="path8"
     d="m 167.78261,196.33678 c -11.60669,25.07908 -30.86884,45.01113 -57.53952,54.85102 7.65548,20.43666 15.45912,40.62103 23.0652,61.00724 4.24755,11.00047 8.29754,23.06064 4.59328,33.90973 -3.85243,11.1014 -18.86703,14.17951 -29.78225,2.37167 C 87.128504,325.66811 16.154868,181.14805 10.919513,170.29895 6.4744005,160.96368 -0.19326922,150.97242 0.00429136,140.17378 0.35002237,123.92537 24.946314,107.47511 36.750559,99.048136 53.246869,87.290747 72.311463,79.267461 92.70959,79.217 c 15.90363,0 29.48592,4.440559 41.53712,12.312463 18.4719,12.110617 31.31334,31.437147 36.0548,53.286727 4.14877,19.22561 3.25975,38.90536 -2.5189,51.52059 M 113.7004,168.88604 c -4.14877,-15.39058 -13.5329,-29.57009 -25.337139,-39.51089 -2.568291,-2.16982 -5.33414,-4.18826 -8.544499,-5.2984 -22.126782,-7.41775 -12.545095,30.37747 -8.939615,39.91459 4.988407,13.37213 12.545095,30.27654 22.670079,40.36872 2.222553,2.22028 4.840232,4.18826 7.853034,4.79379 4.59328,0.95875 8.84083,-2.3212 11.16217,-6.15623 1.92622,-3.17904 2.66707,-6.96361 3.11158,-10.64725 0.83963,-7.82144 0.0988,-15.79427 -1.97561,-23.46433 z"
     inkscape:label="P"
     style="stroke-width:0.505872" />
  <path
     class="medium-fill"
     id="path4"
     d="m 287.05981,219.14512 c 4.74145,20.68896 4.24755,43.39638 0.19756,59.74571 -3.80304,15.44105 -14.12558,29.26733 -30.52311,33.90974 -14.37253,4.08733 -31.11579,1.11014 -41.38894,-8.98204 -16.89143,-16.55118 -26.76946,-55.40609 -22.37374,-83.61373 3.5561,-22.65696 15.50851,-51.67198 41.73468,-52.93351 1.67926,-0.10092 3.35853,-0.0504 5.03779,0.10092 26.72007,2.47259 41.29016,25.48277 47.31576,51.77291 z m -48.30356,47.08002 c 1.4817,0.25231 2.9634,0.25231 4.44511,-0.20184 4.9884,-1.46337 7.85303,-6.76176 9.18657,-11.90877 2.02499,-7.82145 1.72865,-16.24842 -0.88903,-23.91848 -1.33353,-3.88549 -3.30914,-7.67006 -6.32194,-10.49587 -10.61887,-9.9408 -21.23776,0.40369 -23.06519,12.16108 -1.43232,9.18389 0.64207,19.83115 6.27255,27.2489 2.61768,3.43134 6.37132,6.40853 10.37193,7.11498 z"
     inkscape:label="o"
     style="stroke-width:0.505872" />
  <path
     class="dim-fill"
     id="path6"
     d="m 344.89567,262.99565 c -0.0494,38.19891 3.70426,67.41578 -12.74266,70.89758 -13.33534,2.77535 -12.89083,-9.18388 -13.92802,-19.22561 -3.95121,-38.90537 -7.55669,-103.5458 -9.08779,-142.653 1.08658,-16.80349 12.10059,-27.09751 23.5591,-29.62056 17.68167,-3.88549 36.54871,-2.77535 52.20538,7.11499 30.96762,19.57883 33.43713,55.50701 14.66887,84.8248 -10.27314,15.99611 -41.33955,27.60212 -54.67488,26.5929 z m 3.95121,-85.63218 c -1.92622,0.30277 -5.08718,1.21107 -5.97621,3.12859 -2.12378,4.49102 -1.97561,33.00144 1.72866,44.96067 0.59268,1.96797 1.92621,3.83502 3.85243,4.54148 7.0134,2.62397 13.33534,-6.15623 16.19997,-11.45462 4.0006,-7.3673 5.28474,-16.04658 2.76584,-24.12033 -2.37072,-7.51867 -9.72986,-18.41823 -18.57069,-17.05579 z"
     inkscape:label="p"
     style="stroke-width:0.505872" />
  <path
     class="bright-fill"
     id="path2"
     d="m 457.5052,279.54682 c -0.93842,3.98641 -2.96342,7.51869 -6.42073,9.73897 -5.43291,3.4818 -12.05119,2.47258 -16.74325,-1.76613 -4.39573,-3.93597 -5.87743,-10.5968 -4.4945,-16.34935 1.43231,-6.00484 5.9762,-11.30324 11.80424,-12.96845 12.98961,-3.68364 18.37313,10.74817 15.85424,21.34496 z m -7.95182,-40.97426 c -8.05059,-3.27996 -5.28474,-46.42404 2.07438,-98.80246 2.07439,-14.63367 5.63048,-21.54682 9.63109,-25.07908 5.72925,-4.99563 16.15057,-5.19747 23.21336,-4.13779 8.09999,1.21106 15.85424,5.04609 21.73166,10.8491 5.18595,5.147 5.77868,10.39494 4.00059,17.20716 -2.91403,10.8491 -7.90241,21.24405 -12.69325,31.38669 -1.13597,2.47259 -11.06339,21.6982 -12.39693,24.06986 -23.95422,43.09362 -28.74506,47.28187 -35.5609,44.50652 z"
     inkscape:label="!"
     style="stroke-width:0.505872" />
  <path
     class="bright-fill"
     id="path12"
     d="m 328.96012,425.4654 c 0,3.88549 -3.06219,7.01406 -6.86523,7.01406 h -79.36996 c -3.80304,0 -6.86523,-3.12857 -6.86523,-7.01406 v -0.60553 c 0,-3.88549 3.06219,-7.01407 6.86523,-7.01407 h 79.36996 c 3.80304,0 6.86523,3.12858 6.86523,7.01407 z"
     inkscape:connector-curvature="0"
     inkscape:label="_"
     style="stroke-width:0.505872" />
  <path
     class="medium-fill"
     id="path10"
     d="m 432.38309,388.42709 c -0.0988,22.15234 -13.33534,44.30467 -42.52492,44.30467 -29.18957,0 -42.77186,-21.7991 -42.77186,-44.05237 0,-27.7535 18.91642,-44.91021 43.36454,-44.91021 28.34995,0.2523 42.17919,21.74866 41.93224,44.65791 z m -41.93224,-30.68024 c -18.32374,0 -28.59689,13.01892 -28.69567,30.78116 0,15.44104 8.44571,29.92332 28.34994,29.92332 19.90423,0 27.51031,-15.69334 27.51031,-30.0747 0.24695,-14.93643 -7.5073,-30.27655 -27.16458,-30.62978 z m 54.18099,63.63121 c 0,3.27996 0.0988,-15.59241 0,-18.46868 h 13.43412 l 0.93841,11.55554 c 4.39573,2.57351 11.21156,4.49102 16.79265,4.49102 10.37193,0 21.18837,-2.67443 21.18837,-13.01891 -0.34573,-9.38574 -12.39692,-11.30326 -22.12678,-12.31247 -16.5457,-1.71567 -29.88104,-5.85347 -29.88104,-24.82676 0,-16.90442 18.71886,-25.33139 32.64689,-25.33139 11.21156,-0.2523 19.16337,1.56429 29.28834,9.83988 0,6.81222 -0.0988,10.8491 -0.0988,17.66132 h -12.98957 l -0.83964,-11.20233 c -5.23535,-2.5735 -10.61888,-3.27995 -14.76765,-3.17903 -8.93962,0.10092 -18.47192,4.3901 -18.47192,12.06016 0,7.51868 6.17377,9.58757 17.13838,11.20232 17.87924,2.42212 35.1164,6.55992 35.1164,26.03784 -0.0988,21.2945 -19.65728,26.89566 -36.44993,26.89566 -12.79205,0.0504 -20.79325,-2.37166 -30.91823,-11.40417 z"
     inkscape:connector-curvature="0"
     inkscape:label="os"
     style="stroke-width:0.505872" />
</svg>
