<?xml version="1.0" encoding="UTF-8" standalone="no"?>
<svg
   id="Layer_1"
   data-name="Layer 1"
   viewBox="0 0 511.99999 512.00001"
   version="1.1"
   sodipodi:docname="ubuntu.svg"
   inkscape:version="1.3.2 (091e20ef0f, 2023-11-25)"
   width="512"
   height="512"
   xmlns:inkscape="http://www.inkscape.org/namespaces/inkscape"
   xmlns:sodipodi="http://sodipodi.sourceforge.net/DTD/sodipodi-0.dtd"
   xmlns="http://www.w3.org/2000/svg"
   xmlns:svg="http://www.w3.org/2000/svg">
  <sodipodi:namedview
     id="namedview4"
     pagecolor="#ee4eff"
     bordercolor="#000000"
     borderopacity="0.25"
     inkscape:showpageshadow="2"
     inkscape:pageopacity="0.0"
     inkscape:pagecheckerboard="0"
     inkscape:deskcolor="#d1d1d1"
     inkscape:zoom="1.1434191"
     inkscape:cx="262.80827"
     inkscape:cy="327.08916"
     inkscape:window-width="1920"
     inkscape:window-height="1080"
     inkscape:window-x="0"
     inkscape:window-y="0"
     inkscape:window-maximized="1"
     inkscape:current-layer="Layer_1" />
  <defs
     id="defs1" />
  <ellipse
     class="bright-fill"
     cx="72.590057"
     cy="241.96471"
     id="circle1"
     style="stroke-width:8.93966"
     rx="72.590057"
     ry="72.590111" />
  <ellipse
     class="bright-fill"
     cx="374.92941"
     cy="82.838615"
     id="circle2"
     style="stroke-width:8.93966"
     rx="72.590057"
     ry="72.590111" />
  <path
     class="bright-fill"
     d="m 51.85004,342.98298 a 238.42079,238.42097 0 0 0 225.63708,150.54403 102.53793,102.53801 0 0 1 -22.25976,-62.57768 q -9.74424,-1.34095 -18.6839,-3.21828 a 175.39617,175.3963 0 0 1 -120.23845,-92.61497 102.71672,102.7168 0 0 1 -64.45497,7.8669 z"
     id="path2"
     style="stroke-width:8.93966" />
  <ellipse
     class="bright-fill"
     cx="358.56985"
     cy="429.16138"
     id="circle3"
     style="stroke-width:8.93966"
     rx="72.590057"
     ry="72.590111" />
  <path
     class="bright-fill"
     d="m 423.3824,348.34679 a 103.52129,103.52137 0 0 1 35.75865,55.87293 238.1526,238.15278 0 0 0 12.15794,-282.76174 102.53793,102.53801 0 0 1 -42.01641,49.52577 176.37954,176.37967 0 0 1 -5.90018,177.36304 z"
     id="path3"
     style="stroke-width:8.93966" />
  <path
     class="bright-fill"
     d="m 72.76885,138.62215 a 102.26974,102.26982 0 0 1 21.455189,2.23492 104.77284,104.77292 0 0 1 33.702531,13.76709 176.37954,176.37967 0 0 1 143.03459,-76.523568 108.6169,108.61698 0 0 1 1.96673,-16.985371 v 0 A 105.04103,105.04111 0 0 1 293.8467,17.400239 240.47691,240.47709 0 0 0 65.08074,138.89034 c 2.592502,-0.17879 5.095608,-0.26819 7.68811,-0.26819 z"
     id="path4"
     style="stroke-width:8.93966" />
</svg>
