<?xml version="1.0" encoding="UTF-8" standalone="no"?>
<svg
   width="512"
   height="512"
   viewBox="0 0 8885.1749 8874.6667"
   version="1.1"
   id="svg1"
   sodipodi:docname="zorin-os.svg"
   inkscape:version="1.3.2 (091e20ef0f, 2023-11-25)"
   xmlns:inkscape="http://www.inkscape.org/namespaces/inkscape"
   xmlns:sodipodi="http://sodipodi.sourceforge.net/DTD/sodipodi-0.dtd"
   xmlns="http://www.w3.org/2000/svg"
   xmlns:svg="http://www.w3.org/2000/svg">
  <defs
     id="defs1" />
  <sodipodi:namedview
     id="namedview1"
     pagecolor="#ffffff"
     bordercolor="#000000"
     borderopacity="0.25"
     inkscape:showpageshadow="2"
     inkscape:pageopacity="0.0"
     inkscape:pagecheckerboard="0"
     inkscape:deskcolor="#d1d1d1"
     inkscape:zoom="0.58184524"
     inkscape:cx="249.20716"
     inkscape:cy="197.64706"
     inkscape:window-width="949"
     inkscape:window-height="1036"
     inkscape:window-x="0"
     inkscape:window-y="0"
     inkscape:window-maximized="1"
     inkscape:current-layer="svg1" />
  <path
     d="m 1480.8625,7008.104 c 246.2311,426.4896 492.4622,852.9793 738.6933,1279.4689 1482.0088,0 2964.0175,0 4446.0263,0 246.2434,-426.4896 492.4869,-852.9793 738.7303,-1279.4689 -1974.4833,0 -3948.9666,0 -5923.4499,0 z M 8885.1749,4437.3088 c -248.3799,430.4462 -496.7599,860.8924 -745.1398,1291.3386 -1576.0433,0 -3152.0867,0 -4728.13,0 1576.0433,-860.8761 3152.0867,-1721.7521 4728.13,-2582.6282 248.3799,430.4299 496.7599,860.8597 745.1398,1291.2896 z M 0,4437.3579 c 248.37992,-430.4462 496.75983,-860.8925 745.13975,-1291.3387 1576.04335,0 3152.08675,0 4728.13005,0 C 3897.2264,4006.8953 2321.1831,4867.7713 745.13975,5728.6474 496.75983,5298.2176 248.37992,4867.7877 0,4437.3579 Z M 1480.8625,1866.5503 c 246.2311,-426.4855 492.4622,-852.971 738.6933,-1279.45651 1482.0088,0 2964.0175,0 4446.0263,0 246.2434,426.48551 492.4869,852.97101 738.7303,1279.45651 -1974.4833,0 -3948.9666,0 -5923.4499,0 z"
     class="bright-fill"
     id="path1"
     inkscape:label="Logo"
     style="stroke-width:12.3259" />
</svg>
