<?xml version="1.0" encoding="UTF-8" standalone="no"?>
<!-- Generator: Adobe Illustrator 25.3.1, SVG Export Plug-In . SVG Version: 6.00 Build 0)  -->

<svg
   version="1.1"
   x="0px"
   y="0px"
   viewBox="0 0 300 40"
   xml:space="preserve"
   id="svg7"
   sodipodi:docname="seven-elements.svg"
   inkscape:version="1.3.2 (091e20ef0f, 2023-11-25)"
   width="300"
   height="40"
   xmlns:inkscape="http://www.inkscape.org/namespaces/inkscape"
   xmlns:sodipodi="http://sodipodi.sourceforge.net/DTD/sodipodi-0.dtd"
   xmlns="http://www.w3.org/2000/svg"
   xmlns:svg="http://www.w3.org/2000/svg"><defs
   id="defs7" /><sodipodi:namedview
   id="namedview7"
   pagecolor="#be00ab"
   bordercolor="#000000"
   borderopacity="0.25"
   inkscape:showpageshadow="2"
   inkscape:pageopacity="0.0"
   inkscape:pagecheckerboard="0"
   inkscape:deskcolor="#d1d1d1"
   inkscape:zoom="3.3385603"
   inkscape:cx="165.79003"
   inkscape:cy="30.252561"
   inkscape:window-width="1906"
   inkscape:window-height="1036"
   inkscape:window-x="0"
   inkscape:window-y="0"
   inkscape:window-maximized="1"
   inkscape:current-layer="图层_1" />
<g
   id="图层_1">
	
	<g
   id="g7"
   >
      <!-- This is ridiculuos, but it gets the job done -->
		<path
      class="background-fill"
   id="rect1"
   d="M 0,0 V 40 H 300 V 0 Z m 231.5595,1.8443115 c 0,0 0.0188,0.046362 0.0339,0.083224 0.0375,0.1032108 0.65872,1.35648 1.18718,2.391046 0.95177,1.8700829 1.80832,3.3002952 3.29856,5.5045848 0.21541,0.3170057 0.41177,0.6204147 0.41177,0.6204147 0,0 -0.39521,-0.07334 -1.24832,-0.411536 l -0.34561,-0.1400636 -0.0651,0.07864 c -0.17533,0.2162516 -0.65375,0.9190626 -0.88917,1.3048736 -0.9918,1.621886 -1.72816,3.509213 -2.14142,5.477592 -0.0802,0.385812 -0.19036,1.066468 -0.21539,1.331869 -0.01,0.09338 -0.0323,0.187452 -0.0323,0.187452 0,0 -0.0353,-0.145639 -0.053,-0.297997 -0.04,-0.368611 -0.1578,-1.041956 -0.26549,-1.511322 -0.4859,-2.130566 -1.32742,-4.116169 -2.44947,-5.767542 -0.19285,-0.285059 -0.57448,-0.7998697 -0.57448,-0.7998697 0,0 -0.19444,0.072509 -0.41486,0.1609747 -0.41827,0.164646 -1.18038,0.391654 -1.18038,0.391654 0,0 0.18605,-0.300733 0.41397,-0.6373967 1.16962,-1.7422983 1.9636,-3.0226364 2.67992,-4.3275169 0.27299,-0.4988524 1.20226,-2.3320405 1.63804,-3.233907 0.10272,-0.2113366 0.21155,-0.4051739 0.21155,-0.4051739 z M 26.434553,2.0339633 c 0,0 0.07213,0.041094 0.247428,0.2279193 0.258196,0.277844 1.018598,1.3317279 1.639221,2.2778349 1.058848,1.6095791 1.43549,2.8527243 1.137023,3.7533214 -0.191874,0.5772452 -0.549569,1.0179366 -1.423653,1.7556611 -0.260568,0.222754 -0.549538,0.483861 -0.63955,0.579669 -0.644311,0.701795 -1.227029,1.652686 -1.428378,2.337714 -0.127914,0.435929 -0.154005,0.625132 -0.154005,1.07064 0.0024,0.361676 0.0095,0.433533 0.06396,0.646707 0.08054,0.308982 0.319818,0.792815 0.530642,1.077845 0.210822,0.285029 0.675105,0.754519 0.95462,0.962902 0.267086,0.199251 0.454762,0.299354 0.454764,0.299354 0,0 -0.09144,-0.104321 -0.161022,-0.172436 -0.260568,-0.258682 -0.630147,-0.78082 -0.77938,-1.106569 -0.416904,-0.917364 -0.345806,-1.966486 0.206119,-3.013193 0.414539,-0.788022 1.129903,-1.628742 1.966084,-2.311376 0.08703,-0.0706 0.333581,-0.244818 0.590616,-0.4212201 0.344631,-0.23652 0.758514,-0.4883045 0.758514,-0.4883045 0,0 0.01054,-0.012622 -0.136322,0.5478576 -0.229774,0.883831 -0.265279,1.02514 -0.341083,1.355678 -0.196608,0.86467 -0.251107,1.322166 -0.229789,1.973664 0.02131,0.627543 0.106596,1.123351 0.305577,1.736526 0.44533,1.384429 1.331245,2.711369 2.745414,4.11017 0.27145,0.267366 0.442928,0.411864 0.442928,0.411864 0,0 -0.02044,-0.149299 -0.04257,-0.277742 -0.05211,-0.30419 -0.220295,-0.718563 -0.421642,-1.029939 -0.04738,-0.07426 -0.25821,-0.36645 -0.469029,-0.651478 -0.210825,-0.285032 -0.433471,-0.613184 -0.497427,-0.728154 -0.222665,-0.416766 -0.397965,-0.934132 -0.487979,-1.449101 -0.06733,-0.332024 -0.05754,-0.967114 0.01183,-1.279053 0.132651,-0.66347 0.509284,-1.470659 1.148857,-2.455089 0.08254,-0.12694 0.190735,-0.268292 0.286257,-0.379351 0.09914,-0.115262 0.222912,-0.214258 0.222912,-0.214258 0,0 0.01906,0.02116 0.07355,0.354088 0.09949,0.613173 0.559043,1.894649 0.949897,2.649139 0.651415,1.252694 1.471011,2.186818 3.103104,3.535321 0.651419,0.538921 0.852756,0.725757 1.141749,1.051505 0.833812,0.938922 1.634483,2.170034 2.060861,3.168835 0.222669,0.51976 0.419306,1.18562 0.497475,1.691009 0.07334,0.407968 0.06881,1.108998 0,1.449101 -0.113702,0.615572 -0.371903,1.228755 -0.786443,1.853902 -0.634836,0.960476 -1.295762,1.619145 -2.570172,2.55567 -0.983047,0.72096 -1.691296,1.16888 -2.984656,1.887443 -2.323784,1.288624 -2.785689,1.566488 -3.707147,2.222773 -0.855135,0.610779 -2.461194,1.908964 -2.996539,2.423934 -0.110517,0.106257 -0.205197,0.19572 -0.285647,0.269696 -0.235098,0.21618 -0.364194,0.308803 -0.364194,0.308803 0,0 -0.217329,-0.178615 -0.466365,-0.38328 -0.06992,-0.05746 -0.1448,-0.119191 -0.222162,-0.183242 -0.658526,-0.548505 -1.518394,-1.21677 -2.558291,-1.988024 -0.324524,-0.241918 -0.665617,-0.495809 -0.758001,-0.562874 -0.812495,-0.605988 -1.402321,-0.979634 -2.610403,-1.65508 -0.871715,-0.488623 -1.499462,-0.85031 -2.541729,-1.470669 -2.641201,-1.571255 -3.84694,-2.459881 -4.387023,-3.233533 -0.677475,-0.970061 -0.930922,-2.050309 -0.731943,-3.123363 0.127915,-0.685029 0.405077,-1.611968 0.677489,-2.265859 0.170554,-0.411975 0.523464,-1.12574 0.741392,-1.499392 0.604042,-1.046705 1.099121,-1.736538 2.669631,-3.722164 1.331258,-1.681437 1.748203,-2.249096 2.245648,-3.056279 0.343475,-0.555689 0.758013,-1.343694 0.954622,-1.813155 0.0379,-0.08863 0.09474,-0.181466 0.09474,-0.181466 0,0 0.0095,0.164701 0.01895,0.337155 0.04027,0.771259 0.182396,1.374822 0.473757,1.995182 0.473759,1.005987 1.317068,1.894638 2.548839,2.675477 0.80539,0.510179 1.641585,0.912546 3.190776,1.540092 0.317415,0.126945 0.601095,0.258794 0.601095,0.258794 0,0 -0.21028,0.01665 -0.40452,0.01665 -1.17492,0 -2.494302,0.316187 -3.541309,0.845528 -2.070321,1.046705 -3.36842,2.823937 -3.747426,5.130521 -0.03316,0.203592 -0.04266,0.390421 -0.04266,0.826347 0.0024,0.519758 0.0071,0.586811 0.06634,0.867046 0.125546,0.598803 0.343473,1.164094 0.649046,1.683852 0.225036,0.388022 0.362446,0.57487 0.762771,1.049122 0.184765,0.222751 0.351375,0.429125 0.351375,0.429125 0,0 -0.298562,-0.08231 -0.566943,-0.223148 -0.227404,-0.114972 -0.547184,-0.311367 -0.843283,-0.517355 -0.125546,-0.08624 -0.331632,-0.227581 -0.454809,-0.313811 -2.430378,-1.681434 -3.49871,-3.767648 -3.053378,-5.956867 0.210822,-1.027544 0.705875,-2.043088 1.470996,-3.013146 0.180027,-0.227544 0.33458,-0.433524 0.33458,-0.433524 0,0 -0.130205,0.04032 -0.230445,0.09211 -0.09958,0.05146 -0.21813,0.121265 -0.314932,0.188108 -0.364793,0.251498 -1.129918,0.888606 -1.416542,1.178424 -0.84092,0.847905 -1.354969,1.789224 -1.542103,2.826349 -0.06159,0.337723 -0.06159,1.190419 0,1.532933 0.120806,0.673054 0.319817,1.245509 0.601702,1.724551 0.139759,0.239521 0.45954,0.656298 0.69405,0.907795 0.651417,0.697003 1.494672,1.286217 2.911208,2.038313 0.253461,0.134132 0.691712,0.36647 0.971231,0.51497 0.279516,0.1485 0.684561,0.368863 0.90012,0.491018 0.215562,0.119761 1.030425,0.562875 1.812127,0.982036 1.71737,0.922155 2.058485,1.130538 3.482128,2.143714 0.400965,0.285621 0.654531,0.465168 0.814886,0.575365 0.198687,0.136531 0.24579,0.177531 0.24579,0.177531 0,0 0.129197,-0.08308 0.282933,-0.184737 0.179672,-0.118802 0.436422,-0.289966 0.717256,-0.477125 0.521133,-0.349701 1.314665,-0.87906 1.764735,-1.180856 1.293358,-0.864668 1.606078,-1.051499 3.505847,-2.083832 2.456435,-1.336527 3.825559,-2.158075 4.488818,-2.696997 0.424018,-0.342515 0.885934,-0.843126 1.137023,-1.231147 0.227406,-0.352093 0.483275,-0.926946 0.615926,-1.389222 0.09239,-0.328144 0.130239,-0.610768 0.130239,-1.008373 0,-0.400001 -0.03312,-0.637136 -0.137352,-1.003602 -0.225033,-0.776048 -0.641976,-1.446699 -1.34314,-2.158075 -0.381373,-0.388025 -0.613508,-0.591607 -0.992515,-0.864661 -0.103457,-0.07422 -0.240219,-0.165794 -0.371912,-0.250421 -0.22109,-0.142078 -0.457102,-0.276946 -0.457102,-0.276946 0,0 0.06534,0.167116 0.143384,0.363164 0.03015,0.07573 0.06424,0.15994 0.100534,0.248035 0.42875,1.0491 0.658537,1.86585 0.774606,2.77124 0.07099,0.526024 0.071,1.328835 0.0024,1.676645 -0.09949,0.641917 -0.260594,1.15688 -0.549591,1.750889 -0.739061,1.516168 -2.067933,2.759303 -3.965333,3.707804 -1.402321,0.701794 -2.714647,1.087408 -4.171454,1.226328 -0.768695,0.05406 -1.54606,0.06168 -2.084535,-0.02395 -0.772225,-0.112572 -1.771837,-0.39999 -2.510899,-0.720947 -0.274782,-0.119761 -0.874121,-0.433534 -1.089681,-0.574851 -0.717743,-0.464671 -1.231752,-1.010779 -1.530221,-1.628743 -0.438225,-0.910179 -0.371927,-1.920939 0.18474,-2.735309 0.414538,-0.608383 1.096787,-1.032345 1.842955,-1.147315 0.312681,-0.04791 0.497416,-0.04312 1.106194,0.02633 0.250665,0.02948 0.435092,0.04614 0.564651,0.07387 0.133672,0.02859 0.248223,0.09605 0.248223,0.09605 0,0 -0.06907,0.04564 -0.12355,0.072 -0.106593,0.04791 -0.582712,0.43594 -0.791166,0.644322 -0.260569,0.261077 -0.540074,0.711358 -0.68694,1.106567 -0.457175,1.228743 -0.09477,2.603622 0.866954,3.286256 0.577984,0.409581 1.414194,0.685011 2.354604,0.771239 0.364795,0.03593 1.272029,0.01199 1.589443,-0.03831 0.35532,-0.05509 0.911977,-0.191608 1.343097,-0.325739 1.243616,-0.388027 2.205379,-0.936537 2.920753,-1.662285 0.480862,-0.486228 0.848,-1.065852 1.087248,-1.717347 0.461917,-1.25509 0.331631,-2.852722 -0.343471,-4.280268 -0.175293,-0.371257 -0.341082,-0.622727 -0.620601,-0.941289 -0.120807,-0.136527 -0.300867,-0.344929 -0.400357,-0.462294 -0.632466,-0.752096 -1.388088,-1.317357 -2.529846,-1.894601 -0.573248,-0.287425 -0.973599,-0.462294 -2.283543,-1.001217 -1.928193,-0.792813 -2.593812,-1.118553 -3.401571,-1.667056 -1.283883,-0.86946 -2.082141,-1.997608 -2.373502,-3.353294 -0.04738,-0.220359 -0.06443,-0.413531 -0.06386,-0.773764 5.65e-4,-0.351657 0.01885,-0.56513 0.06386,-0.766327 0.201347,-0.919759 0.62533,-1.7054187 1.613116,-2.9988306 1.151231,-1.5065861 1.598943,-2.1724562 2.001639,-2.9820361 0.478492,-0.9580831 0.784053,-2.045491 0.855115,-3.0347118 0.0095,-0.11497 0.03209,-0.2854136 0.03209,-0.2854136 z M 190.61512,2.994012 c 0,0 0.009,0.00991 0.0233,0.027507 0.0463,0.055101 0.16614,0.2238405 0.47609,0.6783776 0.17698,0.2617853 0.44244,0.6425376 0.58832,0.8448261 0.62897,0.8686508 0.95185,1.3827431 1.19817,1.894414 0.56919,1.1851732 0.61463,2.1894719 0.13871,3.1033404 -0.24871,0.4735929 -0.59792,0.8781549 -1.32494,1.5183389 -0.51898,0.459313 -0.77723,0.706828 -0.95897,0.913876 l -0.14115,0.161816 -0.0765,-0.09042 c -0.16024,-0.18563 -0.66725,-0.673495 -1.02357,-0.982877 -1.06664,-0.932909 -1.50191,-1.584978 -1.62866,-2.4488695 -0.0406,-0.2903437 -0.0143,-0.8044022 0.0598,-1.1185441 0.19609,-0.8377123 0.56919,-1.5398063 1.51385,-2.8582523 0.18416,-0.2546454 0.48066,-0.6806332 0.66242,-0.9447978 0.17938,-0.266545 0.36115,-0.530692 0.40182,-0.587809 0.0244,-0.033743 0.0497,-0.063507 0.0669,-0.083085 0.0131,-0.014941 0.0244,-0.027835 0.0244,-0.027835 z m 81.91069,0.912893 c 0,0 0.37809,0.2876981 0.79058,0.6130239 0.26679,0.2104292 0.55224,0.4380023 0.77211,0.61686 2.96546,2.4118891 5.96011,5.2860531 8.30731,7.9725391 2.0212,2.315776 3.57697,4.473673 4.70561,6.528584 l 0.17314,0.318067 -0.16865,0.299774 c -0.52157,0.92677 -1.14664,1.830639 -1.89305,2.739101 -0.33502,0.406367 -0.73865,0.878427 -0.96676,1.133608 -0.10712,0.119864 -0.17881,0.198775 -0.17881,0.198775 0,0 -0.0752,-0.215698 -0.15388,-0.453687 -1.0207,-3.06863 -2.71815,-6.475908 -4.90792,-9.842019 -1.00049,-1.537753 -1.8481,-2.739136 -3.0509,-4.3203595 -0.31251,-0.4118969 -1.28827,-1.6499019 -1.49735,-1.8993264 -0.0945,-0.1144155 -0.19564,-0.2379517 -0.22489,-0.2768526 -0.0697,-0.089242 -0.6542,-0.798645 -1.05665,-1.2791914 -0.16861,-0.2013735 -0.38672,-0.4668151 -0.48339,-0.5903819 -0.0989,-0.1235668 -0.20223,-0.2340475 -0.20223,-0.2340475 0,0 -0.22108,0.2390794 -0.50028,0.5600672 -0.47189,0.5424652 -1.17867,1.3810509 -1.6716,1.9920473 -2.25725,2.7963208 -3.6017,5.0434408 -4.28292,7.1624258 -0.12141,0.377572 -0.26096,0.960936 -0.26096,0.960936 0,0 0.0878,-0.0639 1.26367,-1.06161 0.8656,-0.736838 1.14661,-0.977097 1.94474,-1.661302 0.21358,-0.183065 0.72842,-0.624736 1.1466,-0.984001 0.41819,-0.359265 1.05893,-0.910726 1.4254,-1.224225 0.36648,-0.315787 0.71943,-0.615601 0.78236,-0.670517 l 0.11917,-0.100674 0.0608,0.05034 c 0.15515,0.121281 0.83633,0.805478 1.23203,1.233392 1.97174,2.144152 3.52529,4.345552 4.76185,6.755147 0.0951,0.183734 0.17408,0.332194 0.17408,0.332194 0,0 -0.10494,0.146533 -0.25955,0.329108 -0.50808,0.599537 -1.55804,1.574373 -2.79458,2.592673 -0.80937,0.665898 -2.26943,1.792853 -2.26943,1.792853 0,0 -0.089,-0.07662 -0.1699,-0.152134 -0.24283,-0.228832 -0.70374,-0.807743 -0.96903,-1.221931 l -0.0854,-0.132719 0.063,-0.06408 c 0.036,-0.03433 0.14609,-0.137323 0.24503,-0.228856 0.76666,-0.716243 3.28864,-3.2747 3.28864,-3.2747 0,0 -0.1703,-0.49187 -0.31195,-0.793928 -0.32824,-0.704802 -0.83633,-1.45765 -1.47258,-2.17847 -0.44965,-0.510296 -1.41871,-1.441617 -1.50186,-1.441617 -0.0157,0 -0.16634,0.06865 -0.33047,0.153302 -1.06793,0.549196 -2.90699,1.997716 -4.96642,3.915326 -0.64525,0.601823 -1.73563,1.711664 -2.06612,2.105257 -0.14166,0.167044 -0.25857,0.299769 -0.26083,0.297483 -0.0157,-0.01603 -0.23606,-0.405049 -0.3867,-0.681932 -0.78462,-1.439354 -1.55354,-3.41416 -1.88627,-4.844358 -0.0697,-0.302062 -0.20261,-0.967626 -0.20261,-0.967626 0,0 0.45213,-0.670813 0.82987,-1.165093 1.47034,-1.915319 3.67137,-4.1556064 6.36928,-6.4805388 0.94429,-0.8146374 1.79639,-1.5102974 2.83509,-2.320359 0.072,-0.054923 0.14371,-0.1063342 0.14371,-0.1063342 z m -169.2584,0.057167 c 0,0 -0.0422,0.1003128 -0.0877,0.1756175 -0.14858,0.2477784 -0.50801,1.0056686 -0.65658,1.3749067 -0.0791,0.199194 -0.18932,0.5125574 -0.24443,0.6923179 -0.0959,0.3157961 -0.29956,1.2947925 -0.37144,1.7733443 -0.20609,1.3943603 0.012,3.1045256 0.66139,5.1984936 0.43613,1.404076 1.10951,2.757137 1.89071,3.801694 0.58471,0.7822 1.23891,1.447787 2.20463,2.237274 0.52249,0.421845 0.53163,0.475956 0.53163,0.475956 0,0 -0.29595,-0.04252 -1.31045,-0.383655 -3.47228,-1.12229 -5.3438,-2.266439 -6.594685,-4.032466 -0.898627,-1.268042 -1.301228,-2.58954 -1.301228,-4.275403 0,-0.81621 0.06713,-1.2923167 0.277978,-1.9724926 0.335494,-1.0785637 0.611067,-1.6324126 1.164626,-2.3417382 0.256406,-0.330371 0.824319,-0.9012322 1.181369,-1.1903068 0.37627,-0.3080597 1.1504,-0.9416615 1.98895,-1.2486436 0.57033,-0.2623532 0.66525,-0.2848988 0.66525,-0.2848988 z m 46.46209,0 c 0,0 0.0849,0.00158 0.11546,0.00158 0.0942,0 1.22191,0.070627 1.51151,0.09417 0.83111,0.068278 1.67398,0.2048309 2.47213,0.4026009 3.36209,0.8311053 6.63944,3.0466127 8.91616,6.0249361 0.37435,0.49207 0.99355,1.469145 1.3161,2.083645 0.48972,0.929989 1.00061,2.272017 1.28079,3.366812 0.0827,0.323642 0.19263,0.839807 0.26408,1.218189 0.0506,0.26849 0.0798,0.498458 0.0798,0.498458 0,0 -0.1216,-0.169854 -0.26081,-0.404474 -0.10871,-0.183227 -0.23963,-0.411991 -0.36559,-0.641186 -1.05478,-1.91884 -2.07425,-3.232588 -3.202,-4.13197 -0.23074,-0.183644 -0.69354,-0.48213 -0.69354,-0.48213 0,0 0.0767,0.312633 0.17558,0.672856 0.39555,1.459732 0.60036,3.051298 0.53208,4.117844 -0.0801,1.25019 -0.22365,2.001235 -0.54149,2.867656 -0.37435,1.014749 -0.78403,1.761115 -1.34908,2.446247 -0.20484,0.249566 -0.72753,0.765166 -0.9724,0.965288 -0.6145,0.494426 -1.63629,1.08304 -2.36616,1.363212 -0.13656,0.0518 -0.27077,0.105961 -0.29904,0.120088 -0.0305,0.01413 -0.0833,0.03153 -0.0833,0.03153 0,0 0.0433,-0.111602 0.0904,-0.215195 0.22366,-0.489716 0.37905,-0.953527 0.44498,-1.337295 0.0706,-0.412019 0.0353,-1.040665 -0.0706,-1.297296 -0.50148,-1.205455 -1.7446,-2.013004 -3.09604,-2.013004 -0.36964,0 -0.57212,0.02589 -1.0006,0.129491 -1.7046,0.409666 -2.88884,1.389085 -3.60223,2.975955 -0.21896,0.489716 -0.34139,0.89942 -0.43791,1.473895 -0.0754,0.440273 -0.0754,1.144213 -0.002,1.577424 0.1295,0.753411 0.32256,1.339661 0.65453,1.989475 0.30137,0.59331 0.63333,1.050063 1.12776,1.544488 0.54857,0.553286 1.01475,0.887605 1.69516,1.221929 0.45441,0.223673 0.73698,0.332007 1.15135,0.447374 0.73929,0.202479 1.16542,0.256596 2.02714,0.256596 0.66393,0 0.85936,-0.01409 1.41266,-0.105914 0.50384,-0.0824 0.81223,-0.162481 1.48324,-0.383794 1.8129,-0.60273 3.15255,-1.257235 4.59109,-2.250797 0.37671,-0.258985 0.81264,-0.541727 0.81264,-0.541727 0,0 -0.0357,0.08494 -0.25464,0.431044 -1.9165,3.058372 -4.6311,5.257405 -8.05913,6.533494 -1.14189,0.426146 -1.72813,0.574505 -3.24672,0.828782 0,0 -0.60902,0.110891 -0.83987,0.135103 -0.36646,0.03522 -0.87116,0.04561 -0.87116,0.04561 -2.00831,0.06593 -3.60286,-0.16659 -5.38749,-0.755193 -0.25949,-0.08613 -0.52347,-0.181241 -0.71763,-0.256224 -0.36477,-0.130397 -0.37547,-0.181508 -0.37547,-0.181508 0,0 0.20933,0.0069 0.62842,0.01628 0.73457,0.01647 2.7249,-0.04946 3.16045,-0.09889 0.72751,-0.08476 1.58926,-0.263677 2.16608,-0.447324 0.22133,-0.07063 1.23307,-0.487695 1.23307,-0.487695 0,0 -0.20186,-0.05149 -0.44672,-0.112698 -1.18426,-0.296658 -2.71932,-0.901747 -3.71759,-1.471512 -0.78636,-0.444979 -1.41736,-0.918181 -2.02245,-1.513847 -0.61451,-0.602724 -1.07125,-1.205499 -1.48091,-1.947137 -0.53916,-0.974724 -0.81464,-1.909406 -0.91115,-3.084251 -0.0395,-0.458564 -0.0187,-1.176578 0.0339,-1.70509 0.026,-0.261133 0.10802,-0.6403 0.10802,-0.6403 0,0 0.0512,0.113397 0.11705,0.249954 0.0895,0.183643 0.16009,0.287257 0.3249,0.470902 0.57211,0.640396 0.93942,0.897006 1.50683,1.052394 0.27311,0.07535 0.8429,0.07535 1.18193,0 0.40497,-0.09182 0.84283,-0.270752 1.28313,-0.53209 0.20247,-0.117723 0.58155,-0.49206 0.76754,-0.755755 0.94412,-1.337303 1.15839,-3.265538 0.52741,-4.744105 -0.56506,-1.325529 -1.80349,-2.57104 -3.04426,-3.070172 -0.72514,-0.291948 -1.41969,-0.414391 -2.33555,-0.414391 -0.79109,0 -1.4433,0.09656 -2.0837,0.310815 -0.4591,0.150682 -1.02649,0.435541 -1.51858,0.758094 -0.79813,0.525032 -1.51625,1.273749 -2.02245,2.109563 -0.64275,1.061837 -1.05946,2.217869 -1.33256,3.703499 -0.0754,0.416731 -0.11774,0.784 -0.1766,1.539764 -0.0259,0.334326 -0.0589,0.722821 -0.0706,0.866438 -0.0471,0.536803 -0.0164,1.935287 0.0589,2.620416 0.0188,0.174226 0.0454,0.376683 0.0454,0.376683 0,0 -0.36556,-0.65683 -0.58687,-1.113583 -0.50148,-1.026521 -0.91114,-2.25553 -1.20309,-3.611669 -0.0965,-0.447337 -0.23074,-1.48092 -0.29196,-2.248455 -0.0871,-1.097153 0.0329,-2.655757 0.30609,-3.981287 0.60039,-2.917108 1.46916,-4.77242 3.33856,-7.13389 0.68985,-0.868775 1.44088,-1.6033424 2.38029,-2.328499 0.0965,-0.072986 0.19732,-0.139409 0.19732,-0.139409 0,0 -0.0726,0.1346987 -0.15494,0.2688999 -0.20954,0.3413885 -1.08069,1.8505601 -1.29024,2.234328 -0.64273,1.1842681 -1.05477,2.3026331 -1.21958,3.3079631 -0.0636,0.383769 -0.10338,0.859937 -0.10338,0.859937 l -0.0109,0.09552 0.48872,-0.475158 c 0.41907,-0.423794 0.64744,-0.63099 1.15129,-1.054781 1.24547,-1.045357 2.3073,-1.657532 3.66579,-2.107224 1.01477,-0.339034 1.7917,-0.4567556 2.82294,-0.430858 1.21722,0.03061 2.30967,0.310818 3.42567,0.878228 0.55091,0.280175 1.21254,0.706297 1.61278,1.038269 l 0.17047,0.142167 -0.29996,0.0085 c -0.52504,0.02589 -1.16307,0.200159 -1.66691,0.454434 -0.73692,0.371996 -1.20076,1.127744 -1.29965,2.121304 -0.0613,0.612145 0.0589,1.254906 0.35789,1.895304 0.47087,1.012393 1.5633,1.944751 2.78289,2.368543 0.74869,0.261339 1.51625,0.346065 2.31675,0.256596 1.58922,-0.176579 2.93826,-0.955856 3.90592,-2.253133 0.67337,-0.901739 1.16781,-2.140176 1.25492,-3.143152 0.0377,-0.41202 0.0188,-1.349075 -0.0329,-1.702237 -0.11301,-0.776954 -0.26846,-1.294936 -0.58864,-1.965942 -0.98237,-2.0456125 -2.87468,-3.8007669 -5.75048,-5.3322895 -0.0535,-0.028479 -0.16145,-0.085189 -0.16145,-0.085189 0,0 -0.87654,-0.4570406 -1.08793,-0.5513661 -0.0822,-0.037301 -0.14857,-0.064723 -0.19364,-0.083178 -0.0393,-0.015923 -0.27473,-0.1063338 -0.27473,-0.1063338 z m -35.61606,0.00501 c 0,0 0.008,-0.00189 0.22833,0.090429 0.61827,0.2526366 1.64632,0.8404977 2.18789,1.2534616 1.42103,1.0809933 2.31722,2.4632402 2.71501,4.1904004 0.11742,0.510131 0.17732,1.727158 0.11981,2.412193 -0.048,0.548998 -0.20845,1.331209 -0.34984,1.69316 -0.61826,1.598412 -1.89789,3.038898 -3.62805,4.081025 -0.90341,0.544141 -1.62951,0.862389 -2.98343,1.306933 -0.43373,0.140894 -1.0328,0.33767 -1.32995,0.437267 -0.54284,0.204871 -0.91279,0.236573 -0.91279,0.236573 0,0 0.0429,-0.05198 0.10043,-0.08842 0.11982,-0.08016 0.52476,-0.410509 0.78837,-0.643713 1.28922,-1.141723 2.27412,-2.417063 3.01698,-3.911022 0.79558,-1.598411 1.2581,-3.228421 1.40666,-4.972586 0.0551,-0.6388797 0.0359,-1.751458 -0.036,-2.220294 -0.12222,-0.801635 -0.38337,-1.8097377 -0.6278,-2.4364704 -0.0527,-0.1360353 -0.23005,-0.5077049 -0.39541,-0.8283592 -0.16294,-0.3182251 -0.30024,-0.6005803 -0.30024,-0.6005803 z M 67.539436,4.5869238 c 0.779351,-0.00285 1.752355,0.058276 2.51422,0.165606 1.231656,0.1736047 2.57829,0.5771442 3.929596,1.1777228 1.853348,0.8234491 3.558886,2.0269607 4.858578,3.4298746 1.358342,1.4662568 2.451577,3.2187278 3.291449,5.2832148 0.513775,1.259807 0.771834,2.406985 0.93371,4.135994 0.05642,0.549291 0.06239,2.050272 -0.01171,2.662753 -0.09619,0.987669 -0.412875,2.491425 -0.7202,3.413407 -0.541928,1.630477 -1.358349,3.124893 -2.575928,4.710798 -0.30263,0.391782 -0.978267,1.10732 -1.538972,1.628134 -2.066827,1.919039 -4.412857,3.181189 -7.033352,3.781764 -1.309071,0.302636 -2.018151,0.389082 -3.503182,0.389082 -0.96186,-0.0023 -1.200581,-0.02543 -1.934877,-0.107551 -0.619352,-0.06804 -2.052765,-0.387073 -2.798793,-0.624017 -1.468605,-0.462165 -2.83631,-1.412319 -4.056233,-2.824617 -0.137381,-0.137381 -0.231286,-0.300383 -0.231288,-0.300383 0,0 0.322739,0.164309 0.688718,0.349643 1.787663,0.910255 3.378292,1.501438 4.731943,1.759496 0.173604,0.03285 0.370648,0.07042 0.433989,0.08215 0.27918,0.05162 1.055711,0.147807 1.548372,0.187687 0.16891,0.01406 0.405842,0.03516 0.527835,0.04687 0.415242,0.03988 1.198816,0.05164 1.611714,0.02584 1.119047,-0.07273 1.851013,-0.23929 2.780033,-0.633417 1.571826,-0.668617 2.909077,-1.848639 3.835752,-3.39231 0.954826,-1.58825 1.374765,-3.741903 1.074476,-5.515485 -0.246327,-1.459219 -0.84691,-2.817559 -1.740737,-3.938951 -0.26041,-0.328442 -0.910297,-0.980661 -1.219967,-1.224645 -1.367724,-1.08151 -2.81518,-1.646885 -4.710749,-1.839258 -0.38944,-0.03754 -1.170679,-0.01408 -1.592956,0.04926 -0.387092,0.05865 -0.495017,0.08213 -1.104977,0.246352 -0.541928,0.145453 -0.652186,0.168891 -0.93371,0.197043 -0.246328,0.02346 -0.530204,-0.0023 -0.741346,-0.07036 -0.675646,-0.215834 -1.224616,-0.85864 -1.377107,-1.614054 -0.05161,-0.262753 -0.0352,-0.713202 0.03519,-0.959533 0.178295,-0.614656 0.588855,-1.062735 1.245745,-1.363024 0.373011,-0.166567 1.309083,-0.455146 1.846321,-0.563062 1.503789,-0.307327 3.253901,-0.27683 4.640391,0.07976 0.333136,0.08681 1.04632,0.321432 1.454527,0.48096 1.367726,0.53489 2.648645,1.381762 3.671502,2.432775 0.811723,0.832832 1.442821,1.719626 1.968328,2.768291 0.581808,1.165968 0.865652,2.087983 1.036909,3.373596 0.09709,0.801596 0.104563,1.743969 0.04695,2.252153 -0.07512,0.891482 -0.204075,1.569485 -0.436334,2.275636 -0.417586,1.26919 -1.029902,2.428142 -1.801736,3.425195 -0.609967,0.783569 -1.414686,1.557717 -2.249861,2.162987 -0.208796,0.152493 -1.492036,0.900886 -1.750094,1.022876 -0.09679,0.04574 -0.283027,0.132625 -0.283027,0.132625 0,0 0.282126,-0.09507 0.51525,-0.188904 0.448091,-0.178293 1.112043,-0.513775 1.602359,-0.807025 1.759507,-1.058051 3.059186,-2.273297 4.084392,-3.824009 1.013473,-1.529599 1.773581,-3.563613 1.980022,-5.290278 0.122,-1.00409 0.138419,-2.2193 0.04695,-3.061518 -0.03282,-0.290905 -0.204114,-1.208206 -0.31203,-1.672717 -0.36833,-1.56245 -1.137797,-3.157744 -2.158315,-4.473856 -0.588842,-0.755414 -1.445144,-1.607032 -2.277975,-2.256876 -0.792952,-0.619348 -1.766524,-1.236352 -2.472678,-1.564793 -1.700855,-0.7952968 -4.10087,-1.2246125 -6.09029,-1.0932357 -0.790599,0.053958 -1.470949,0.1759726 -2.310814,0.4199569 -2.181792,0.6310778 -4.079713,1.7383838 -5.536585,3.2304468 -0.389437,0.39882 -0.598219,0.647498 -0.985311,1.170657 -0.495005,0.668612 -0.818775,0.919618 -1.339585,1.034572 -0.213487,0.04692 -0.628697,0.05163 -0.865645,0.01175 -0.741339,-0.12903 -1.372439,-0.553646 -1.651616,-1.111995 -0.175953,-0.347209 -0.220531,-0.703814 -0.140768,-1.119058 0.129031,-0.687382 0.478593,-1.297317 1.48503,-2.587622 0.520818,-0.668613 0.774199,-0.9618705 1.229322,-1.4216884 0.788262,-0.7952968 1.546005,-1.409963 2.45626,-1.9894271 1.578862,-1.0087838 3.643353,-1.8814901 5.172953,-2.1864709 0.654534,-0.1313765 1.592965,-0.2792023 1.935487,-0.3073542 0.187681,-0.014077 0.445727,-0.035198 0.574757,-0.044582 0.201758,-0.015833 0.440019,-0.023887 0.699803,-0.024839 z M 231.55458,7.2905594 c 0,0 -0.10394,0.1218929 -0.19661,0.2398486 -0.31809,0.4030134 -0.95681,0.9977104 -1.51282,1.410554 l -0.0876,0.063904 0.25547,0.5136135 c 0.73887,1.4891855 1.25977,3.1429975 1.47268,4.6665875 0.0292,0.211492 0.0647,0.388848 0.0647,0.388848 0,0 0.0269,-0.15307 0.048,-0.302818 0.2154,-1.599768 0.78144,-3.378922 1.55287,-4.8926812 0.0977,-0.1867629 0.20061,-0.3785556 0.20061,-0.3785556 0,0 -0.0904,-0.058889 -0.16805,-0.1154097 -0.55852,-0.4079291 -1.17213,-0.9903327 -1.49022,-1.420378 -0.0602,-0.078637 -0.139,-0.1735123 -0.139,-0.1735123 z M 96.012629,8.7719408 c 0,0 0.01638,0.1678494 0.03313,0.3306041 0.03593,0.352234 0.167758,1.1732761 0.254023,1.6008141 0.361855,1.749024 1.07355,3.342595 2.163876,4.841411 0.814761,1.122288 1.179036,1.46966 2.410752,2.310161 0.86268,0.587865 1.64146,1.04214 2.92589,1.695593 1.61274,0.823498 2.51854,1.404083 3.31891,2.120695 0.44094,0.395962 0.59911,0.5757 0.92739,1.044537 0.32112,0.459118 0.50801,0.845384 0.5823,1.204903 0.0143,0.07774 0.0526,0.192363 0.0526,0.192366 0,0 0.0288,-0.131643 0.0504,-0.231242 0.15578,-0.733616 0.78598,-1.588713 1.81401,-2.458364 0.69974,-0.592724 1.30601,-0.96921 2.88759,-1.79028 2.22378,-1.153867 3.00262,-1.615422 3.75027,-2.220293 0.67576,-0.548997 1.41863,-1.408973 2.13754,-2.47296 0.68294,-1.008117 1.22448,-2.191144 1.55276,-3.376591 0.0551,-0.201625 0.38104,-1.8656197 0.44574,-2.278583 0.0383,-0.2356316 0.079,-0.4462481 0.079,-0.4462481 0,0 0.13664,0.2574238 0.27563,0.5548277 0.21636,0.4629032 0.49459,1.0877024 0.56315,1.2784904 0.55596,1.571693 0.80039,3.250282 0.64943,4.474598 -0.11742,0.954673 -0.4649,1.766041 -1.13347,2.655126 -0.32351,0.432398 -0.90822,0.944936 -1.52649,1.340896 -0.34027,0.21863 -1.13583,0.612166 -1.54559,0.765205 -0.74526,0.279358 -1.04722,0.354687 -2.18068,0.546593 -2.04885,0.347375 -3.21351,0.643719 -3.96595,1.010527 -0.86987,0.425109 -1.30357,0.721493 -1.86672,1.272923 -0.47925,0.471265 -0.82673,0.949793 -1.09272,1.506082 -0.30434,0.629161 -0.38341,0.971688 -0.38341,1.627573 0.002,0.403245 0.01,0.490695 0.0575,0.692316 0.13898,0.561148 0.35706,0.983842 0.7261,1.399233 0.55355,0.621874 1.24128,1.042109 2.08958,1.275311 0.18433,0.05027 0.35595,0.08233 0.35595,0.08233 0,0 0.22089,-0.133044 0.41328,-0.259638 0.19888,-0.128748 0.40019,-0.252646 0.44812,-0.272081 0.16294,-0.07045 0.38191,-0.09714 0.61301,-0.07317 0.14893,0.01992 0.31042,0.05301 0.44475,0.0879 0.17692,0.04596 0.33254,0.106194 0.33254,0.106194 0,0 -0.0838,0.06885 -0.16829,0.156483 -0.20128,0.208737 -0.60762,0.626012 -1.07344,1.099924 -0.94176,0.957107 -1.26287,1.299636 -1.49771,1.598429 -0.63022,0.804064 -1.19576,1.666443 -1.79963,2.754725 -0.2588,0.463973 -1.09993,2.084233 -1.31559,2.533637 -0.0575,0.123887 -0.12804,0.232598 -0.12804,0.232598 0,0 -0.0948,-0.159731 -0.62921,-1.19943 -1.11669,-2.174133 -2.02968,-3.638941 -2.90433,-4.664064 -0.0839,-0.09959 -0.6662,-0.697191 -1.29164,-1.328779 -0.64222,-0.646167 -1.15105,-1.18315 -1.15105,-1.18315 0,0 0.15895,-0.06303 0.30992,-0.109188 0.21326,-0.06315 0.29959,-0.09334 0.50567,-0.103058 0.24201,-0.01215 0.30912,0.0035 0.46247,0.06179 0.1989,0.07774 0.37623,0.174878 0.68296,0.378931 l 0.22527,0.150635 0.17013,-0.02914 c 0.26359,-0.04615 0.86504,-0.235649 1.0903,-0.342534 0.26359,-0.126317 0.67819,-0.405683 0.93459,-0.634027 0.34986,-0.310938 0.59906,-0.646145 0.80515,-1.076113 0.22526,-0.476125 0.31631,-0.927979 0.28996,-1.469687 -0.024,-0.517422 -0.15336,-1.000814 -0.40976,-1.542525 -0.35945,-0.75305 -0.79558,-1.294799 -1.46655,-1.812218 -0.94415,-0.72876 -1.699,-1.100405 -2.93311,-1.440494 -0.70691,-0.194335 -1.03524,-0.259924 -2.3604,-0.463978 -1.020838,-0.160326 -1.495309,-0.26237 -2.020118,-0.4397 -0.977693,-0.330372 -1.897901,-0.833213 -2.544911,-1.389501 -0.479267,-0.412962 -0.934556,-0.94983 -1.212526,-1.430811 -0.572726,-0.986253 -0.879431,-2.127971 -0.84109,-3.138519 0.01203,-0.352234 0.150958,-1.374911 0.258796,-1.906905 0.11742,-0.587865 0.342664,-1.297215 0.62304,-1.967674 0.153356,-0.3643796 0.567907,-1.2194205 0.646987,-1.3311659 0.02639,-0.036438 0.08188,-0.1022641 0.08188,-0.1022641 z M 207.36663,9.6132109 c 0,0 -0.0425,0.1274667 -0.084,0.2664672 -0.044,0.1475289 -0.11735,0.3705199 -0.22848,0.7004129 -0.41854,1.249427 -0.55721,1.575488 -0.84899,1.996725 -0.31088,0.447413 -0.73901,0.759146 -1.21015,0.880519 -0.38503,0.09757 -0.88486,0.09047 -1.43731,-0.02376 -0.36351,-0.07378 -0.91593,-0.154706 -1.04986,-0.154706 -0.0471,0 -0.10779,-0.0022 -0.10779,-0.0022 0,0 0.006,-0.100532 0.0408,-0.233393 0.0527,-0.209427 0.10041,-0.497412 0.16739,-1.04954 0.0382,-0.316523 0.0837,-0.587836 0.12196,-0.709208 0.26546,-0.871031 0.98058,-1.4112583 2.06155,-1.5611899 0.23435,-0.033318 1.27229,-0.078536 2.16913,-0.092815 0.18415,-0.00475 0.34433,-0.00951 0.3539,-0.011884 z m -33.50136,0.023907 c 0,0 0.12402,7.61e-4 0.30562,9.55e-5 0.58653,-0.00212 1.8642,0.03608 2.17828,0.074242 1.15752,0.1404123 1.88693,0.6829866 2.16196,1.6039956 0.0263,0.09043 0.0814,0.428391 0.122,0.749672 0.0406,0.321282 0.0957,0.685425 0.12197,0.809178 0.0263,0.123752 0.055,0.266541 0.0622,0.314138 0.008,0.05087 0.0123,0.09085 0.0123,0.09085 0,0 -0.0464,-4.31e-4 -0.0841,-4.31e-4 -0.14349,0 -0.62899,0.06901 -1.01881,0.145164 -0.4544,0.08806 -0.81548,0.118994 -1.0953,0.09282 -0.92074,-0.08568 -1.52823,-0.585461 -1.99218,-1.642122 -0.0773,-0.177547 -0.55227,-1.548825 -0.71252,-2.0453304 -0.033,-0.1024647 -0.0615,-0.1922716 -0.0615,-0.1922716 z m 10.82114,0.9706211 c 0.40981,-0.0035 0.88754,0.03601 1.06153,0.06278 1.44926,0.216568 2.67615,0.787762 3.5371,1.646893 0.34676,0.345079 0.58833,0.737745 0.58833,0.961452 0,0.456934 -0.52855,1.313687 -0.87534,1.413642 -0.06,0.02835 -0.0885,-0.04287 -0.32284,-0.383188 -0.40417,-0.587825 -0.70071,-0.878156 -1.18619,-1.16612 -0.50462,-0.297483 -0.98294,-0.442668 -2.05197,-0.618778 -0.37547,-0.06187 -1.00921,-0.0547 -1.46837,0.01431 -0.59311,0.09044 -1.33688,0.299851 -1.82715,0.516419 -0.83942,0.371259 -1.66929,1.035229 -2.24565,1.799169 -0.72224,0.956704 -1.20774,2.14666 -1.41102,3.467486 -0.0765,0.483112 -0.0741,1.311311 0,1.787284 0.18175,1.137576 0.44242,1.984785 0.88965,2.891514 0.47111,0.956708 0.95424,1.630242 1.72192,2.394181 0.74138,0.740136 1.18856,1.061383 2.59239,1.863399 1.03075,0.590207 1.14558,0.644979 2.62832,1.278022 1.3632,0.580688 1.8917,0.880547 2.50394,1.411253 0.41851,0.364124 0.9877,1.037639 1.29384,1.530269 0.36589,0.592587 0.49784,0.779286 0.49784,0.779286 0,0 0.0929,-0.108199 0.37265,-0.569891 0.58116,-0.951946 1.26752,-1.701594 2.00891,-2.189467 0.51418,-0.340319 0.91357,-0.535468 2.2361,-1.097116 1.02117,-0.435519 1.38948,-0.616371 2.28391,-1.12804 0.95423,-0.54499 1.20056,-0.699713 1.65255,-1.035275 2.05912,-1.537393 3.33621,-3.824417 3.62318,-6.497005 0.0334,-0.311764 0.0143,-1.00434 -0.0358,-1.370837 -0.12914,-0.913869 -0.46631,-1.953859 -0.87766,-2.691617 -0.67441,-1.213732 -1.74346,-2.198984 -2.90336,-2.672577 -0.48547,-0.199909 -1.16228,-0.383163 -1.71233,-0.466457 -0.46157,-0.06902 -1.0953,-0.07381 -1.46838,-0.01431 -1.15512,0.190388 -1.66931,0.361761 -2.26002,0.752058 -0.39699,0.261787 -0.61461,0.502153 -1.10011,1.208973 -0.0813,0.121375 -0.1452,0.219114 -0.17696,0.221323 -0.0551,0 -0.27266,-0.16659 -0.36593,-0.278444 -0.29656,-0.356979 -0.5333,-0.866256 -0.5333,-1.147079 0,-0.128514 0.0885,-0.330795 0.25349,-0.573542 0.11719,-0.173729 0.57876,-0.635459 0.81073,-0.81395 0.81073,-0.614006 1.85347,-1.037627 2.97989,-1.211359 0.28937,-0.04522 0.46061,-0.07045 0.97,-0.07045 0.55925,0 0.6873,0.01813 1.64391,0.229931 0.51178,0.114234 0.73185,0.178493 1.12644,0.335562 0.84423,0.333182 1.71471,0.851978 2.4274,1.444565 1.21968,1.016203 1.87736,1.953888 2.44175,3.484141 0.25351,0.683022 0.34442,1.05667 0.49987,2.068113 0.11957,0.766316 0.15066,1.270839 0.11957,1.911022 -0.0933,1.927692 -0.71746,3.986268 -1.67408,5.5189 -0.75333,1.208973 -1.82716,2.249006 -3.34818,3.248552 -0.56321,0.370066 -1.71757,1.053013 -1.85849,1.136738 -0.7078,0.428662 -0.95047,0.539711 -1.68096,0.893294 -1.7506,0.868647 -2.4083,1.297001 -3.12335,2.034758 -0.48549,0.502153 -0.84182,1.00906 -1.35841,1.932447 -0.57512,1.02463 -0.80081,1.511856 -0.92299,2.033026 0,0 -0.0337,0.12299 -0.0478,0.12299 -0.0142,0 -0.0479,-0.125985 -0.0479,-0.125985 -0.0981,-0.459312 -0.34438,-1.004276 -0.88965,-1.980022 -0.34437,-0.611627 -0.49982,-0.866279 -0.69352,-1.137585 -0.64573,-0.904348 -1.34407,-1.530273 -2.37482,-2.127616 -0.26308,-0.152312 -1.14558,-0.62589 -1.16949,-0.62589 -0.0187,0 -0.21793,-0.114386 -0.52059,-0.247802 -0.30851,-0.142363 -0.75824,-0.350021 -1.108,-0.580416 -2.25284,-1.304168 -3.22145,-1.972901 -4.13502,-2.860592 -0.5955,-0.578309 -0.99965,-1.075692 -1.40621,-1.725394 -0.94705,-1.515974 -1.56646,-3.555526 -1.67169,-5.507017 -0.0334,-0.637803 -0.005,-1.089968 0.12196,-1.911021 0.16263,-1.037622 0.24634,-1.387493 0.51419,-2.113352 0.5381,-1.454097 1.22446,-2.434597 2.37958,-3.400824 0.87051,-0.725857 1.83195,-1.275614 2.83402,-1.620694 0.35393,-0.121374 1.24833,-0.318915 1.86535,-0.414109 0.10776,-0.01281 0.23681,-0.01875 0.37341,-0.01993 z m 62.87898,0.317365 c 0,0 -0.0226,0.04335 -0.0477,0.07517 -0.025,0.03183 -1.73067,2.508988 -2.12641,3.125794 -0.52595,0.82323 -1.06446,1.744776 -1.57041,2.676133 -0.12773,0.23591 -0.28048,0.518512 -0.33808,0.626637 -0.0602,0.108127 -0.31306,0.597149 -0.56353,1.086172 -0.24794,0.49148 -0.46318,0.912332 -0.46318,0.912332 0,0 -0.073,-0.23714 -0.12918,-0.501871 -0.0541,-0.254922 -0.10943,-0.55422 -0.134,-0.7471 -0.0126,-0.106204 -0.0212,-0.183563 -0.029,-0.240082 -0.0115,-0.08422 -0.0213,-0.151806 -0.0213,-0.151806 0,0 -0.0625,-0.0057 -0.10744,-0.01113 -1.11205,-0.144987 -2.47203,-0.14253 -3.77443,0 -1.623,0.176933 -3.53654,0.67086 -4.95663,1.272922 -0.11523,0.04916 -0.2347,0.09005 -0.2347,0.09005 0,0 0.15454,-0.131825 0.33738,-0.266983 0.53097,-0.393182 1.06699,-0.860099 1.66308,-1.442505 1.29489,-1.26802 2.29168,-2.563066 3.09067,-4.015391 0.21266,-0.389022 0.45127,-0.884915 0.55809,-1.148016 0.0416,-0.102533 0.0711,-0.169255 0.0711,-0.169255 0,0 -0.0832,-0.07118 -0.14825,-0.11541 -0.19103,-0.126601 -0.60744,-0.468797 -0.87112,-0.704248 -0.13042,-0.116459 -0.25421,-0.249298 -0.25421,-0.249298 0,0 0.0972,-0.0022 0.39428,0.01161 0.15826,0.0074 0.37732,0.01967 0.67594,0.03762 1.15714,0.07127 2.26922,0.103245 3.51901,0.103245 1.49774,0.0024 2.21908,-0.02705 4.08251,-0.16467 1.12903,-0.08255 1.37762,-0.08991 1.37762,-0.08991 z m -32.02081,0.0039 c 0,0 0.32738,0.01721 0.61541,0.03686 2.86025,0.203963 3.17087,0.21868 4.80637,0.216224 1.32494,-0.0024 2.42946,-0.03684 3.7594,-0.117935 0.3281,-0.01966 0.66122,-0.03686 0.73633,-0.03686 l 0.13779,0.0024 -0.17534,0.157278 c -0.26048,0.238368 -0.74137,0.634043 -0.93924,0.776573 -0.0977,0.06881 -0.18202,0.139315 -0.18202,0.139315 0,0 0.17704,0.398812 0.35488,0.774793 0.45583,0.95593 1.27732,2.20676 2.06877,3.150403 0.92673,1.105831 2.17903,2.297704 3.09825,2.944002 0.10518,0.07372 0.19821,0.16191 0.19821,0.16191 0,0 -0.20074,-0.07347 -0.41112,-0.159477 -0.76892,-0.319462 -2.03125,-0.702799 -2.98049,-0.906764 -1.8058,-0.385812 -3.63167,-0.496404 -5.32481,-0.319471 -0.18282,0.01966 -0.34524,0.03308 -0.34524,0.03308 0,0 -0.0254,0.158589 -0.0455,0.325692 -0.0225,0.167106 -0.0802,0.498885 -0.13025,0.734796 -0.0475,0.23591 -0.0952,0.461969 -0.1002,0.498831 -0.008,0.03686 -0.025,0.08655 -0.025,0.08655 0,0 -0.25548,-0.474809 -0.53351,-1.015438 -1.42512,-2.764577 -2.03623,-3.777042 -4.01486,-6.65466 -0.44333,-0.641382 -0.56785,-0.828124 -0.56785,-0.828124 z m 24.81038,2.050663 c 0,0 -0.0806,0.09956 -0.14318,0.20523 -0.16279,0.260486 -0.50845,0.74214 -0.80899,1.123036 -0.77393,0.978047 -1.7232,1.924113 -2.70501,2.690821 -0.16279,0.127784 -0.32773,0.273204 -0.32773,0.273204 0,0 0.17998,-0.06677 0.30271,-0.115924 0.99183,-0.393184 2.15647,-0.720026 3.24096,-0.904333 0.65622,-0.113039 1.59044,-0.211312 1.99617,-0.211312 0.11272,0 0.23255,-0.0067 0.23255,-0.0067 0,0 0.0279,-0.216964 0.063,-0.440589 0.035,-0.226078 0.10273,-0.56277 0.15034,-0.749532 0.0827,-0.334208 0.2805,-0.931365 0.3506,-1.066522 0.0269,-0.04986 0.0563,-0.127526 0.0563,-0.127526 0,0 -0.14157,-0.02614 -0.36181,-0.06166 -0.57602,-0.09093 -1.1847,-0.260488 -1.77075,-0.496399 -0.13777,-0.05407 -0.27506,-0.111854 -0.27506,-0.111854 z m -17.60716,0.0044 c 0,0 -0.0257,0.0018 -0.24364,0.09515 -0.50341,0.213796 -1.21473,0.415298 -1.79079,0.506221 -0.19036,0.02949 -0.35315,0.05896 -0.35816,0.06142 -0.002,0.0049 0.0502,0.162181 0.12022,0.348943 0.21792,0.592234 0.34312,1.076369 0.4283,1.663687 0.025,0.181848 0.0518,0.378368 0.0518,0.378368 0,0 0.12346,0.0025 0.24368,0.0025 0.2104,0 0.74388,0.04422 1.19972,0.09829 1.33245,0.15973 2.78262,0.525876 4.02741,1.017355 0.18425,0.07265 0.3423,0.137818 0.3423,0.137818 0,0 -0.064,-0.06394 -0.0968,-0.08622 -0.36568,-0.253111 -1.07451,-0.862513 -1.62552,-1.400683 -0.5961,-0.582404 -1.00682,-1.046858 -1.54281,-1.744759 -0.19536,-0.255571 -0.75571,-1.078126 -0.75571,-1.078126 z m -37.673,1.959486 c 0.4948,-1.67e-4 0.6899,0.03453 0.8836,0.07261 0.81792,0.159452 1.44929,0.564 1.86542,1.197044 0.15784,0.242747 0.27981,0.492563 0.27981,0.492563 0,0 -0.12674,-0.03326 -0.26546,-0.06896 -0.39699,-0.109472 -0.52136,-0.130894 -0.77488,-0.130894 -0.959,0.0024 -1.96824,0.811559 -2.40111,1.925337 -0.31807,0.813914 -0.32044,1.675439 -0.01,2.534571 0.33961,0.937667 0.82027,1.62069 1.76731,2.510759 1.02358,0.963847 1.39667,1.356519 1.72431,1.820593 0.13633,0.19277 0.40612,0.664858 0.40612,0.664858 0,0 -0.0952,-0.05326 -0.54243,-0.379303 -1.45883,-1.05904 -2.53025,-1.677781 -4.06563,-2.351282 -0.75572,-0.328421 -1.13596,-0.433149 -1.58796,-0.433149 -0.52374,0 -1.17428,0.168979 -1.7339,0.449803 -0.0813,0.04284 -0.16972,0.07373 -0.16972,0.07373 0,0 0.0453,-0.09989 0.10516,-0.19985 0.44722,-0.752037 1.09057,-1.15901 1.97544,-1.251824 0.12436,-0.0119 0.25349,-0.02381 0.28457,-0.02381 0.009,0 0.05,4.8e-5 0.05,4.8e-5 0,0 -0.0839,-0.0936 -0.28204,-0.292757 -0.38266,-0.387919 -0.52611,-0.552148 -0.72222,-0.844873 -0.29414,-0.437895 -0.52853,-0.942386 -0.64811,-1.39694 -0.0503,-0.190391 -0.0717,-0.26289 -0.0693,-0.662707 0,-0.404576 0.019,-0.4844 0.0765,-0.717628 0.3109,-1.301784 1.11209,-2.222825 2.35091,-2.708316 0.26786,-0.104715 0.42809,-0.145162 0.84661,-0.218938 0.29176,-0.05236 0.33757,-0.06232 0.65652,-0.06067 z m 11.11513,7.63e-4 c 0.57358,-9.27e-4 1.2024,0.140851 1.78116,0.416915 1.08098,0.51881 1.79366,1.437425 2.05675,2.653537 0.0838,0.358812 0.0809,0.961046 0,1.249439 -0.0981,0.428376 -0.34916,0.980494 -0.64812,1.427909 -0.20327,0.304623 -0.31567,0.437904 -0.71027,0.840101 -0.15785,0.161829 -0.28205,0.314699 -0.28205,0.314699 0,0 0.13138,0.0066 0.27727,0.02086 0.93268,0.09282 1.59036,0.516425 2.05192,1.31844 0.0358,0.06425 0.0622,0.135433 0.0622,0.135433 0,0 -0.10516,-0.045 -0.21758,-0.09735 -0.72941,-0.352219 -1.50427,-0.49501 -2.10933,-0.390297 -0.44961,0.07854 -1.13117,0.35222 -2.21692,0.892449 -1.09294,0.542608 -2.27916,1.28992 -3.39363,2.132393 -0.0575,0.04522 -0.1431,0.104696 -0.1431,0.104696 0,0 0.0929,-0.223715 0.2268,-0.430763 0.3109,-0.483112 0.66006,-0.887666 1.28425,-1.477871 0.72224,-0.685404 1.25316,-1.220911 1.43731,-1.446999 0.53093,-0.661602 0.93749,-1.47313 1.09534,-2.191851 0.0765,-0.35698 0.0765,-1.063813 0,-1.418413 -0.22243,-1.013822 -0.85378,-1.861012 -1.69083,-2.270349 -0.32523,-0.157073 -0.55721,-0.216605 -0.87288,-0.218984 -0.27026,-0.0024 -0.40178,0.01904 -0.78682,0.128508 -0.13633,0.03808 -0.26549,0.06906 -0.26549,0.06906 0,0 0.18432,-0.449171 0.57634,-0.8663 0.44245,-0.478352 1.14318,-0.799605 1.92282,-0.880518 0.0527,-0.0047 0.27451,-0.01568 0.56493,-0.01474 z m 32.52278,0.184833 c 0,0 0.0906,0.04378 0.27339,0.127339 0.51343,0.238369 1.44763,0.653657 1.54281,0.688061 l 0.0928,0.03953 0.12265,0.363492 c 0.19286,0.582405 0.63867,2.378785 0.76891,3.093891 0.0263,0.146215 0.0527,0.210749 0.0527,0.210749 0,0 0.0321,-0.08408 0.0577,-0.20827 0.008,-0.03594 0.0156,-0.07684 0.0249,-0.122895 0.21789,-1.096001 0.56355,-2.479524 0.77896,-3.123363 0.013,-0.03925 0.0239,-0.07179 0.0338,-0.09898 0.0219,-0.06039 0.0485,-0.124205 0.0485,-0.124205 0,0 0.0523,-0.02724 0.0856,-0.04219 0.0952,-0.04668 1.52026,-0.673356 1.69059,-0.744619 0.0501,-0.02211 0.1147,-0.04603 0.1147,-0.04603 0,0 0.0481,0.429398 0.0932,0.903677 0.0451,0.476736 0.0902,0.933829 0.1002,1.014923 l 0.015,0.147408 -0.36317,0.383374 c -0.4433,0.469366 -1.72066,1.653848 -2.30926,2.142871 -0.04,0.03441 -0.0879,0.09118 -0.0879,0.09118 0,0 0.21816,-0.06416 0.43858,-0.135433 0.98407,-0.321839 2.09651,-0.644955 2.73445,-0.800852 0.24861,-0.06074 0.51372,-0.111854 0.51372,-0.111854 0,0 0.0889,0.04395 0.40822,0.265063 0.17051,0.118089 0.41513,0.291215 0.77175,0.544444 0.28554,0.203965 0.54242,0.38997 0.54242,0.38997 0,0 -0.11915,0.09413 -0.23185,0.167851 -0.11268,0.07372 -0.49342,0.336689 -0.84407,0.582429 -0.29931,0.211336 -0.46234,0.332408 -0.55876,0.390157 -0.0455,0.02721 -0.0909,0.05791 -0.0909,0.05791 0,0 -0.0549,-0.0093 -0.0767,-0.01315 -0.53349,-0.08847 -1.73567,-0.417758 -3.04308,-0.835518 -0.61112,-0.196592 -0.57817,-0.17777 -0.57817,-0.17777 0,0 0.1574,0.140914 0.33524,0.293274 0.89163,0.781454 1.71311,1.548199 2.12387,1.983159 0.16739,0.176597 0.32841,0.335517 0.32841,0.335517 0,0 -0.0313,0.336425 -0.083,0.826814 -0.035,0.344037 -0.0777,0.756883 -0.0952,0.919069 -0.0225,0.235909 -0.0323,0.310911 -0.0323,0.310911 0,0 -0.45103,-0.20032 -0.9169,-0.409198 -0.46585,-0.208879 -0.87413,-0.388259 -0.90669,-0.395631 -0.0355,-0.01257 -0.0947,-0.04173 -0.0947,-0.04173 0,0 -0.032,-0.08373 -0.0654,-0.182776 -0.19952,-0.593024 -0.6661,-2.430475 -0.8292,-3.30436 -0.0183,-0.100906 -0.0462,-0.192506 -0.0462,-0.192506 0,0 -0.0279,0.07748 -0.0389,0.140906 -0.0526,0.277685 -0.36064,1.648921 -0.46833,2.078967 -0.0762,0.302137 -0.19263,0.727638 -0.28172,1.033823 -0.0515,0.176939 -0.12837,0.425758 -0.12837,0.425758 0,0 -0.0883,0.05419 -0.41392,0.191802 -0.10268,0.04424 -0.48089,0.208886 -0.83655,0.36616 -0.35816,0.157274 -0.67501,0.288784 -0.67501,0.288784 0,0 -0.0388,-0.384637 -0.0765,-0.802395 -0.0375,-0.420218 -0.0826,-0.872377 -0.10016,-1.007534 l -0.0301,-0.243263 0.19289,-0.211359 c 0.24544,-0.2654 1.16212,-1.154958 1.5879,-1.538315 0.41325,-0.373525 0.80898,-0.720025 0.88913,-0.783916 0.035,-0.02703 0.10447,-0.09469 0.10447,-0.09469 0,0 -0.2372,0.06518 -0.52522,0.15611 -1.14961,0.373524 -2.15147,0.661056 -2.82771,0.810957 l -0.35815,0.07864 -0.16782,-0.113071 c -0.50594,-0.34158 -1.53633,-1.084956 -1.53633,-1.084956 0,0 0.13627,-0.104435 0.27151,-0.195358 0.75387,-0.523427 1.20719,-0.840414 1.29987,-0.911679 0.0651,-0.05407 0.16336,-0.100491 0.16336,-0.100491 0,0 0.49071,0.09738 0.98395,0.228855 0.63396,0.16899 1.48971,0.422286 2.33913,0.697325 0.1703,0.05406 0.35491,0.108439 0.35491,0.108439 0,0 -0.0995,-0.105973 -0.21967,-0.206727 -0.21538,-0.181849 -0.29057,-0.248214 -0.9092,-0.806044 -0.30499,-0.276517 -1.06519,-1.015753 -1.42188,-1.377339 -0.1061,-0.107573 -0.21043,-0.220247 -0.21043,-0.220247 0,0 -0.007,-0.05691 0.0108,-0.28284 0.0116,-0.149802 0.0342,-0.380108 0.0712,-0.741627 0.0551,-0.540628 0.11732,-1.046407 0.11732,-1.046407 z M 92.481334,15.628007 c 0,0 0.02428,0.01961 0.04424,0.04066 0.02639,0.02428 0.110266,0.143322 0.184551,0.264783 0.07427,0.121461 0.249205,0.383847 0.388198,0.585469 0.138977,0.199195 0.364252,0.527138 0.50084,0.728762 0.476868,0.692323 0.829124,1.112555 1.456959,1.739287 0.951349,0.94496 1.919434,1.642155 2.681468,1.9288 0.481664,0.18219 1.147849,0.366814 1.785276,0.500419 0,0 0.204337,0.06018 0.460465,0.07798 0.256129,0.0178 0.962219,-0.02206 1.589209,-0.02624 0.62698,-0.0041 0.98886,0.009 1.72694,0.215474 0.92259,0.257496 1.70142,0.631554 2.27414,1.097961 0.73088,0.595154 1.21493,1.377381 1.34431,2.166868 0.0596,0.351334 0.0489,0.822208 -0.0263,1.146565 -0.1941,0.901234 -0.70933,1.62758 -1.3683,1.9288 -0.80277,0.369238 -1.97697,0.08016 -2.27893,-0.561145 -0.0767,-0.162756 -0.10303,-0.485863 -0.0504,-0.643757 l 0.0311,-0.09717 0.26361,-0.01455 c 1.04,-0.06315 1.97218,-0.46398 2.23578,-0.961966 0.37863,-0.721471 0.26359,-1.583839 -0.28994,-2.183849 -0.24444,-0.267212 -0.51762,-0.439709 -0.85551,-0.546595 -0.14618,-0.04615 -0.23245,-0.05829 -0.4673,-0.05829 -0.47687,0.0024 -0.80034,0.0996 -1.54561,0.46641 -0.76443,0.376527 -2.23578,0.961964 -2.995406,1.192739 -0.898621,0.274499 -1.313209,0.352216 -1.857177,0.352216 -0.728488,0.0024 -1.332347,-0.116598 -2.024883,-0.395957 -0.970515,-0.3911 -1.883522,-1.156292 -2.4826,-2.079387 -0.601483,-0.925524 -0.939344,-1.921509 -1.138242,-3.349878 -0.07185,-0.507703 -0.07911,-1.40408 -0.01443,-1.821904 0.07193,-0.459118 0.278001,-1.304439 0.400218,-1.625093 0.01373,-0.03907 0.02763,-0.06741 0.02763,-0.06741 z m 168.502106,0.0077 c 0.005,0.0045 0.0742,0.203679 0.15065,0.441664 0.29001,0.878713 0.7284,2.009113 1.1758,3.027413 0.26751,0.608695 0.94651,2.016005 1.29048,2.665887 1.57379,2.990833 3.65792,6.144157 6.16698,9.336359 0.60704,0.773451 1.04096,1.30433 2.32023,2.848946 0.17536,0.210522 0.34621,0.421067 0.37996,0.466832 0.0373,0.05073 0.0882,0.104602 0.0882,0.104602 0,0 0.0503,-0.0454 0.0849,-0.08856 0.0292,-0.03662 0.16862,-0.19681 0.3125,-0.359279 0.58229,-0.661324 1.46812,-1.718534 2.01221,-2.400452 2.26398,-2.848956 3.56123,-5.11671 4.18176,-7.320363 0.11688,-0.41876 0.13487,-0.494244 0.11015,-0.494244 -0.0202,0 -0.99373,0.81923 -2.24826,1.894741 -0.28326,0.244846 -0.65871,0.562895 -0.82959,0.709345 -0.1731,0.146454 -0.57781,0.494307 -0.89932,0.771193 -0.91953,0.791758 -2.44161,2.096093 -2.56974,2.205933 l -0.11914,0.100674 -0.0787,-0.0618 c -0.11467,-0.08924 -1.08591,-1.075496 -1.39844,-1.421031 -1.8728,-2.064063 -3.38134,-4.226546 -4.57742,-6.560628 l -0.17313,-0.336358 0.1394,-0.178517 c 0.33051,-0.42334 1.33547,-1.398164 2.25501,-2.183057 0.56913,-0.485346 1.67187,-1.372344 2.35123,-1.899607 0.31356,-0.243379 0.5809,-0.443583 0.5809,-0.443583 0,0 0.21822,0.187869 0.4365,0.444191 0.20006,0.234913 0.42859,0.529648 0.59954,0.784619 l 0.18659,0.274606 -0.26755,0.256269 c -0.47211,0.448508 -1.4074,1.372994 -2.37417,2.345528 -0.3403,0.342069 -0.56351,0.561074 -0.70519,0.712294 -0.14572,0.155548 -0.24301,0.245977 -0.24301,0.245977 0,0 0.0584,0.212685 0.10961,0.348381 0.30574,0.81693 0.86558,1.713955 1.60077,2.562922 0.34157,0.393533 1.03746,1.078309 1.37929,1.371071 0.10141,0.08686 0.16935,0.147736 0.16935,0.147736 0,0 0.16266,-0.06362 0.31083,-0.14114 0.19478,-0.101933 0.44438,-0.24268 0.60912,-0.347962 1.21409,-0.778029 3.01042,-2.263147 4.78879,-3.961079 0.61152,-0.58352 1.37592,-1.372978 1.68396,-1.743682 0.13487,-0.160183 0.24731,-0.290608 0.25179,-0.290608 0.002,0 0.10117,0.171633 0.21807,0.382159 1.05216,1.894726 1.8863,4.102947 2.1853,5.789438 l 0.063,0.350112 -0.11019,0.164765 c -0.31025,0.469104 -0.99371,1.359247 -1.52431,1.986243 -0.7689,0.908463 -2.26622,2.473696 -3.26221,3.40962 -1.64798,1.546902 -3.44886,3.086902 -5.14854,4.395819 -0.0528,0.041 -0.11953,0.08931 -0.11953,0.08931 0,0 -0.12931,-0.08874 -0.35259,-0.260901 -2.94745,-2.25628 -6.30637,-5.36612 -8.91432,-8.251687 -2.29998,-2.544606 -4.07385,-4.951905 -5.31491,-7.212762 l -0.17306,-0.31582 0.0359,-0.07092 c 0.0202,-0.0389 0.15511,-0.267731 0.29675,-0.510293 0.70371,-1.18306 1.37817,-2.086959 2.62373,-3.510292 0.1349,-0.153317 0.24958,-0.274598 0.25408,-0.270023 z m -136.1077,0.0061 c 0,0 0.077,0.153312 0.1513,0.391374 0.0648,0.201623 0.22764,0.976565 0.26839,1.275355 0.0551,0.403249 0.0719,1.156304 0.0383,1.59113 -0.0911,1.141724 -0.42411,2.249442 -0.98006,3.242983 -0.34987,0.629164 -0.98969,1.370048 -1.55281,1.804875 -0.54638,0.420253 -1.29643,0.743368 -2.11837,0.913408 -0.62784,0.128748 -1.32995,0.131141 -1.90509,0.0073 -0.5919,-0.128748 -1.13827,-0.279335 -1.62953,-0.446948 -0.30671,-0.104456 -2.01531,-0.847804 -2.60002,-1.132019 -0.8387,-0.405676 -1.45457,-0.442106 -2.09678,-0.126311 -0.62544,0.308508 -0.99924,0.867207 -1.03518,1.542526 -0.0288,0.541711 0.20369,1.14658 0.54636,1.421076 0.33788,0.272071 0.96092,0.466404 1.78765,0.558714 0.21089,0.02429 0.41215,0.05834 0.41215,0.05834 0,0 0.0262,0.100179 0.025,0.205415 -7.8e-4,0.09265 -0.009,0.198202 -0.025,0.275544 -0.0431,0.204048 -0.13895,0.383816 -0.28513,0.531996 -0.39539,0.403251 -1.14784,0.534415 -1.86195,0.323074 -0.25161,-0.07287 -0.36423,-0.13115 -0.54636,-0.279333 -0.49843,-0.403247 -0.81957,-0.910943 -0.97773,-1.549819 -0.0925,-0.33292 -0.0851,-0.965831 -0.01,-1.31423 0.17013,-0.804067 0.65182,-1.644568 1.19577,-2.081822 0.69494,-0.561145 1.61515,-0.986266 2.65995,-1.231616 0.63982,-0.148181 0.9011,-0.177199 1.58758,-0.181838 0,0 1.62349,0.04097 1.99013,-0.03434 0.18452,-0.03887 0.44812,-0.09716 0.5871,-0.128742 1.59835,-0.376526 3.03375,-1.316638 4.3062,-2.820312 0.48644,-0.575721 0.84589,-1.061544 1.65825,-2.237276 0.21328,-0.308509 0.40947,-0.578453 0.40947,-0.578453 z m -70.242694,2.462624 c 0.14809,0.0077 0.294735,0.0381 0.464819,0.09323 0.675648,0.215834 1.241008,0.82111 1.433385,1.531951 0.07508,0.269793 0.07507,0.741329 0.0023,1.015812 -0.121993,0.459819 -0.455119,0.924337 -0.856288,1.198822 -0.161875,0.110263 -0.466835,0.248689 -0.685019,0.312033 -0.269788,0.07741 -0.783594,0.07741 -1.051037,0 -0.863335,-0.248678 -1.506118,-1.041647 -1.557731,-1.923747 -0.0352,-0.591195 0.194736,-1.151896 0.659247,-1.611715 0.328438,-0.323748 0.60055,-0.464499 1.116671,-0.572416 0.175952,-0.03637 0.325523,-0.05161 0.473616,-0.04397 z m -27.859142,1.954621 c 0.247042,-5e-6 0.499087,0.009 0.635294,0.02573 0.60404,0.07186 0.9665,0.148503 1.414203,0.299401 1.286254,0.433532 2.210079,1.314972 2.714632,2.586826 0.807755,2.035927 0.07104,3.451498 -2.451722,4.706588 -0.167696,0.08366 -0.331289,0.154349 -0.468985,0.204294 -0.251808,0.09901 -0.382625,0.08453 -0.382625,0.08453 0,0 0.05362,-0.07969 0.148065,-0.18343 0.265306,-0.292218 0.445334,-0.641935 0.559037,-1.08505 0.08528,-0.342511 0.101878,-0.86945 0.03556,-1.25987 -0.12081,-0.706587 -0.407432,-1.276617 -0.902507,-1.791589 -0.585092,-0.608383 -1.28154,-0.979649 -2.153255,-1.147314 -0.239248,-0.04791 -0.355283,-0.05511 -0.845622,-0.05511 -0.438226,0.0024 -0.620632,0.012 -0.793555,0.04313 -0.528238,0.09821 -1.016223,0.258655 -1.456819,0.474223 -0.127914,0.06228 -0.260713,0.130612 -0.260713,0.130612 0,0 0.0529,-0.142975 0.124578,-0.287284 0.08111,-0.163304 0.193262,-0.37375 0.290092,-0.540325 0.459545,-0.788024 1.018609,-1.348512 1.705558,-1.71019 0.137391,-0.07185 0.329245,-0.158083 0.426366,-0.191617 0.253459,-0.08382 0.83464,-0.24187 1.057308,-0.275402 0.116069,-0.01917 0.358074,-0.02815 0.605116,-0.02816 z m 215.679726,0.506549 c 0,0 0.25022,0.502813 0.54576,1.077845 1.34745,2.614679 2.08633,3.845866 3.80449,6.332757 0.41074,0.592234 0.75629,1.0901 0.75629,1.0901 0,0 -0.52587,-0.03343 -1.10195,-0.07275 -2.53966,-0.181847 -3.75188,-0.223641 -5.38739,-0.179406 -1.07948,0.02949 -2.18653,0.07863 -3.08065,0.135151 -0.25297,0.0172 -0.4798,0.02109 -0.4798,0.02109 0,0 0.20335,-0.204078 0.45,-0.41523 0.2094,-0.179286 0.44849,-0.374278 0.60834,-0.490503 0.12022,-0.08847 0.2289,-0.161632 0.2289,-0.161632 0,0 -0.41172,-0.902424 -0.64965,-1.342299 -1.06697,-1.961005 -2.86782,-4.032625 -4.7137,-5.4186 -0.18284,-0.135156 -0.3452,-0.270303 -0.3452,-0.270303 0,0 0.17491,0.05897 0.32269,0.120415 0.85908,0.361239 2.12391,0.742113 3.16833,0.958365 1.51279,0.309633 3.07316,0.43497 4.41814,0.356334 0.28258,-0.01743 0.6661,-0.05016 0.90767,-0.07517 0.13316,-0.01379 0.23716,-0.02339 0.23716,-0.02339 0,0 0.0172,-0.147177 0.0373,-0.309365 0.055,-0.410387 0.19538,-1.125496 0.25296,-1.285228 0.008,-0.02148 0.0202,-0.04818 0.0202,-0.04818 z m -21.79734,0.0062 c 0,0 0.0751,0.298659 0.13446,0.599131 0.0436,0.220475 0.085,0.450006 0.10297,0.58313 0.0156,0.118211 0.0266,0.205601 0.0357,0.270349 0.0161,0.113929 0.0239,0.185395 0.0239,0.185395 0,0 0.0599,0.0037 0.0957,0.0087 0.37317,0.05406 1.33243,0.113023 1.83584,0.113023 1.91853,0 4.04246,-0.363663 5.94597,-1.019788 0.36459,-0.124693 0.78116,-0.283418 0.99457,-0.375702 0.0431,-0.01865 0.20654,-0.07835 0.20654,-0.07835 0,0 -0.13685,0.116986 -0.18166,0.147923 -0.026,0.01801 -0.0547,0.038 -0.0852,0.0604 -1.00435,0.742134 -2.13896,1.82339 -3.02058,2.882531 -0.90417,1.081256 -1.69312,2.31734 -2.25416,3.531297 -0.12423,0.266747 -0.18703,0.420471 -0.18703,0.420471 0,0 0.0984,0.07143 0.18703,0.13487 0.25297,0.179395 0.43331,0.326872 0.78896,0.646334 0.11953,0.106519 0.19199,0.172031 0.23087,0.212666 0.0278,0.02912 0.071,0.07153 0.071,0.07153 0,0 -0.007,0.0016 -0.0312,0.0015 -0.19531,-0.0027 -0.50357,-0.02036 -1.00949,-0.0474 -3.20341,-0.176933 -4.57844,-0.164641 -7.89203,0.07373 -0.57103,0.03932 -1.10895,0.0749 -1.10895,0.0749 0,0 0.11464,-0.168309 0.27241,-0.396847 0.48589,-0.70036 1.47022,-2.14528 1.71566,-2.518808 0.8666,-1.326997 1.81337,-3.005424 2.85279,-5.057353 0.14274,-0.280145 0.27599,-0.523672 0.27599,-0.523672 z m -45.71112,0.111715 c 0.21198,-0.0068 0.45456,0.04095 0.63394,0.130192 0.19849,0.09995 0.30851,0.183225 0.64571,0.492609 0.17459,0.159452 0.36593,0.330817 0.42572,0.378414 l 0.10521,0.08804 -0.1483,0.138052 c -0.0789,0.07615 -0.25828,0.266535 -0.39699,0.423606 -0.46394,0.530711 -0.64333,0.659251 -0.96379,0.69971 -0.507,0.05949 -1.06659,-0.135669 -1.98254,-0.694938 -0.16979,-0.104714 -0.36829,-0.22371 -0.43526,-0.261789 -0.0747,-0.04462 -0.12634,-0.07644 -0.12634,-0.07644 0,0 0.0274,-0.02651 0.0426,-0.04257 0.0215,-0.0238 0.14112,-0.116606 0.26787,-0.202282 0.12435,-0.08567 0.3922,-0.290351 0.59309,-0.449803 0.20328,-0.161831 0.42332,-0.326021 0.49028,-0.3641 0.11718,-0.06665 0.43764,-0.180894 0.65048,-0.233252 0.0604,-0.01488 0.12766,-0.02318 0.19832,-0.02544 z m 31.28901,0.0013 c 0.11031,0.0038 0.22809,0.02294 0.36321,0.05745 0.36352,0.09044 0.574,0.202288 0.97339,0.521191 0.19134,0.15231 0.46633,0.361737 0.60984,0.464072 0.20498,0.144325 0.35994,0.272081 0.35994,0.272081 0,0 -0.20752,0.118587 -0.47474,0.280033 -0.55006,0.330801 -0.79877,0.464066 -1.06899,0.573542 -0.5118,0.209425 -0.98535,0.247528 -1.30344,0.102358 -0.15783,-0.0714 -0.35631,-0.254664 -0.74373,-0.69494 -0.1746,-0.197528 -0.3444,-0.375996 -0.37791,-0.399794 -0.0385,-0.03073 -0.0848,-0.07864 -0.0848,-0.07864 0,0 0.0617,-0.07174 0.14936,-0.145071 0.0717,-0.05236 0.25349,-0.214196 0.40415,-0.356988 0.38264,-0.36174 0.59074,-0.495023 0.87533,-0.561658 0.10522,-0.02617 0.20804,-0.03751 0.31834,-0.03364 z m 25.31348,1.034851 c 0,0 0.0554,0.376819 0.0706,0.485639 0.04,0.28549 0.10272,0.646763 0.16799,0.961686 0.45584,2.206745 1.3049,4.300461 2.43699,5.99607 0.1546,0.232369 0.38693,0.562252 0.53322,0.761367 0.0765,0.104112 0.14703,0.180205 0.14703,0.180205 0,0 0.14628,-0.06672 0.33162,-0.140439 0.23083,-0.09211 0.49279,-0.186609 0.71614,-0.260947 0.2832,-0.09425 0.54356,-0.15335 0.54356,-0.15335 0,0 -0.12264,0.190663 -0.26039,0.39217 -1.26732,1.874997 -2.12638,3.258518 -2.85521,4.59043 -0.3256,0.594689 -1.74825,3.410869 -1.79332,3.550942 -0.01,0.02702 -0.0306,0.07237 -0.0306,0.07237 0,0 -0.11474,-0.222243 -0.23245,-0.460609 -0.45584,-0.936271 -1.30237,-2.617139 -1.51277,-3.002949 -0.80399,-1.469523 -1.64556,-2.826017 -2.91289,-4.705931 -0.15527,-0.230996 -0.27297,-0.420235 -0.25795,-0.42515 0.0401,-0.01475 0.79898,0.233454 1.15213,0.375984 0.18535,0.07617 0.39956,0.175101 0.39956,0.175101 0,0 0.17901,-0.202129 0.53466,-0.723099 1.21973,-1.776702 2.13139,-3.968709 2.58473,-6.214775 0.0589,-0.286795 0.12619,-0.684166 0.16912,-0.978012 0.0266,-0.18202 0.0682,-0.476704 0.0682,-0.476704 z M 67.858672,21.908915 c 0.261874,0.0088 0.534,0.03635 0.869481,0.08444 1.245728,0.178296 2.643982,1.060439 3.359516,2.120838 0.319057,0.476239 0.63105,1.26214 0.73428,1.855678 0.04795,0.322127 0.06365,0.658907 0.0094,0.933711 -0.07272,0.408207 -0.265128,0.81874 -0.560723,1.191758 -0.171259,0.218176 -0.309653,0.328452 -0.560674,0.455136 -0.262752,0.131377 -0.48568,0.190635 -0.804734,0.190635 -0.490323,0.0023 -0.910187,-0.171862 -1.255054,-0.493263 -0.321406,-0.30029 -0.50204,-0.624044 -0.746024,-1.327844 -0.222871,-0.64281 -0.368345,-0.910264 -0.626402,-1.13548 -0.307329,-0.269792 -0.828144,-0.441057 -1.344264,-0.441057 -0.335482,-0.0023 -0.774176,0.09856 -1.062734,0.244012 -0.239295,0.119651 -0.750727,0.499706 -0.997052,0.741347 -0.434015,0.424625 -0.692109,0.90086 -0.778913,1.442785 -0.07976,0.495009 -0.03048,1.210527 0.119667,1.682074 0.403514,1.285614 1.649269,2.353053 3.061564,2.625188 1.072125,0.208793 2.078542,0.04927 3.108441,-0.487978 0.584153,-0.307327 1.006432,-0.605241 1.426367,-1.00641 0.12918,-0.124055 0.259728,-0.241406 0.367514,-0.332242 0.138852,-0.11702 0.260339,-0.192737 0.260339,-0.192737 0,0 -0.06167,0.130546 -0.14521,0.258795 -0.05854,0.08988 -0.127914,0.190476 -0.191713,0.275543 -0.811714,1.09089 -2.029319,1.900258 -3.265672,2.17005 -0.893827,0.197064 -2.019922,0.145466 -2.829292,-0.131364 -1.234,-0.417587 -2.240405,-1.177687 -2.953593,-2.233391 -0.220527,-0.326095 -0.469228,-0.849269 -0.621725,-1.309086 -0.281518,-0.853946 -0.3472,-1.916666 -0.175944,-2.791728 0.276828,-1.40526 1.156589,-2.669797 2.465662,-3.547204 0.647494,-0.431666 1.531935,-0.741319 2.329573,-0.814044 0.294427,-0.02698 0.546043,-0.03696 0.807917,-0.02817 z m 168.487038,0.808712 c 0,0 0.19428,0.154379 0.35708,0.279706 0.8641,0.675784 1.76572,1.553094 2.46202,2.393527 0.37318,0.454619 0.8741,1.135317 1.07447,1.467065 0.0476,0.07864 0.10433,0.162003 0.10433,0.162003 0,0 0.20123,-0.08582 0.41161,-0.166914 0.50845,-0.196592 1.08701,-0.358818 1.58291,-0.437455 0.38071,-0.06143 0.43442,-0.05483 0.43442,-0.05483 0,0 -0.10378,-0.247404 -0.16639,-0.416963 -0.20039,-0.525882 -0.38823,-1.285226 -0.43083,-1.744758 -0.01,-0.109926 -0.023,-0.230211 -0.023,-0.230211 0,0 -0.16242,-0.01334 -0.39262,-0.02292 -1.59796,-0.07127 -3.50146,-0.481629 -5.02676,-1.083692 -0.2755,-0.108127 -0.38716,-0.144555 -0.38716,-0.144555 z m -9.58777,0.0027 c 0,0 0.002,-0.0081 -0.38168,0.139315 -1.62299,0.624179 -3.43628,1.012449 -5.05427,1.086172 -0.21289,0.0092 -0.36527,0.01558 -0.36527,0.01558 0,0 -0.0239,0.138495 -0.038,0.274422 -0.0502,0.484107 -0.26551,1.339288 -0.46338,1.828311 -0.0576,0.137611 -0.10267,0.257992 -0.10267,0.267822 0,0.0098 0.16029,0.04178 0.35815,0.07373 0.55602,0.08847 1.0845,0.23591 1.66056,0.459534 0.19286,0.07372 0.38604,0.14273 0.38604,0.14273 0,0 0.0522,-0.08865 0.11741,-0.186939 0.42828,-0.653667 1.01935,-1.413029 1.55536,-2.002807 0.56352,-0.619265 1.60544,-1.570286 2.14141,-1.953639 0.0927,-0.06635 0.18632,-0.144228 0.18632,-0.144228 z m 4.79739,2.694191 c 0,0 -0.0446,0.20235 -0.0671,0.371912 -0.20791,1.533417 -0.72389,3.179883 -1.46272,4.664157 l -0.26803,0.538173 0.0752,0.05651 c 0.69627,0.523425 1.23725,1.034577 1.57035,1.48428 0.0602,0.07864 0.13306,0.170049 0.13306,0.170049 0,0 0.10237,-0.108635 0.18754,-0.214303 0.37317,-0.457076 0.89413,-0.955897 1.37253,-1.31222 0.12522,-0.09338 0.25004,-0.186891 0.25004,-0.186891 0,0 -0.0923,-0.17192 -0.17993,-0.343939 -0.78144,-1.528504 -1.35245,-3.315041 -1.57035,-4.914811 -0.015,-0.125327 -0.0405,-0.31292 -0.0405,-0.31292 z M 57.359422,25.530382 c 0.306263,0.02507 0.612886,0.13859 0.825784,0.312782 0.434014,0.358938 0.62637,0.982963 0.478575,1.555389 -0.06804,0.267443 -0.171274,0.445745 -0.375375,0.647501 -0.293254,0.293253 -0.635753,0.436342 -1.032233,0.431654 -0.870365,-0.01173 -1.590579,-0.816395 -1.475625,-1.651572 0.04927,-0.351902 0.255712,-0.743704 0.506735,-0.959536 0.211142,-0.180641 0.476255,-0.2956 0.769509,-0.330791 0.09853,-0.01232 0.200542,-0.01379 0.30263,-0.0054 z m 51.319748,2.645116 c 0,0 -0.0453,0.107996 -0.0742,0.190589 -0.13659,0.383812 -0.3331,0.67772 -0.69255,1.03967 -0.15816,0.160326 -0.37381,0.34738 -0.49841,0.4324 -0.28516,0.196767 -0.73328,0.415404 -1.02563,0.502855 -0.12461,0.03887 -0.26446,0.09076 -0.26446,0.09076 0,0 0.48493,0.09386 0.77488,0.09628 0.68776,0 1.12386,-0.172456 1.63188,-0.65101 l 0.14858,-0.138474 0.1845,0.182215 c 0.30433,0.296362 0.68298,0.50284 1.08796,0.592721 0.21088,0.04615 0.70691,0.05341 0.92977,0.01212 0.19649,-0.03644 0.36842,-0.100814 0.36842,-0.100814 0,0 -0.1001,-0.03522 -0.18153,-0.0595 -0.78359,-0.238063 -1.51924,-0.740882 -1.95297,-1.338467 -0.14379,-0.19919 -0.33791,-0.556324 -0.39064,-0.72151 -0.0143,-0.04858 -0.0456,-0.129818 -0.0456,-0.129818 z m -0.0143,2.74841 c 0,0 -0.11735,0.09483 -0.22759,0.196857 -0.26598,0.238059 -0.63262,0.485869 -0.92018,0.617047 -0.127,0.0583 -0.24861,0.132905 -0.24861,0.132905 0,0 0.10723,0.161026 0.21267,0.32864 0.41696,0.648598 0.67099,1.076133 0.91782,1.554687 0.14378,0.274499 0.29242,0.54421 0.29242,0.54421 0,0 0.10296,-0.201684 0.22516,-0.439744 0.45291,-0.884228 0.74286,-1.382234 1.02564,-1.763615 0.0983,-0.131179 0.18394,-0.242703 0.18394,-0.242703 0,0 -0.11683,-0.04881 -0.22947,-0.09497 -0.26359,-0.106884 -0.54399,-0.284197 -0.91541,-0.58299 -0.16055,-0.131178 -0.31639,-0.250328 -0.31639,-0.250328 z"
   inkscape:label="rect1" />
	</g>
</g>
</svg>
