<?xml version="1.0" encoding="UTF-8" standalone="no"?>
<svg
   version="1.1"
   width="330"
   height="100"
   id="svg16"
   sodipodi:docname="grubshin-bootpact.svg"
   xml:space="preserve"
   inkscape:version="1.3.2 (091e20ef0f, 2023-11-25)"
   xmlns:inkscape="http://www.inkscape.org/namespaces/inkscape"
   xmlns:sodipodi="http://sodipodi.sourceforge.net/DTD/sodipodi-0.dtd"
   xmlns="http://www.w3.org/2000/svg"
   xmlns:svg="http://www.w3.org/2000/svg">

   <defs
   id="defs16" /><sodipodi:namedview
   id="namedview16"
   bordercolor="#000000"
   borderopacity="0.25"
   inkscape:showpageshadow="2"
   inkscape:pageopacity="0.0"
   inkscape:pagecheckerboard="0"
   inkscape:deskcolor="#d1d1d1"
   inkscape:zoom="2.8284271"
   inkscape:cx="171.29662"
   inkscape:cy="110.30866"
   inkscape:window-width="1920"
   inkscape:window-height="1080"
   inkscape:window-x="0"
   inkscape:window-y="0"
   inkscape:window-maximized="1"
   inkscape:current-layer="g13"
   showguides="true"
   showgrid="false"
   pagecolor="#ffffff" /><g
   id="g16"
   transform="matrix(0.25837188,0,0,0.25837188,27.52212,-1.0511209)"
   inkscape:label="Logo"><g
     id="g19"
     inkscape:label="Bootpact"
     transform="translate(-37.3205,-17.540595)"><path
       d="m 892.06176,341.63808 c -0.0203,6.13001 0.0292,12.25086 -0.0308,18.38087 1.2,0.12 2.4009,0.009 2.69093,-1.4209 1.31002,-2.84 2.39895,-6.02954 5.20897,-7.76954 4.76003,-3.48 10.9602,-2.09961 16.4502,-2.3496 -0.01,13.69999 0.0195,27.38886 -0.0105,41.08886 0.17003,4.65 -3.59865,8.58975 -7.90867,9.73975 -1.77998,0.81 -4.5303,0.76107 -5.03025,3.10107 15.42,0.18 30.89932,0.51008 46.29929,-0.16992 -2.1,-3.28 -6.96037,-2.44095 -9.59032,-5.23095 -5.85,-4.81001 -2.64923,-13.07905 -3.65918,-19.51905 -0.01,-0.45 -0.03,-1.34004 -0.0495,-1.79004 0.40995,-9.06 0.0503,-18.14973 0.18015,-27.21972 5.91998,0.18 12.90008,-1.22036 17.6001,3.38964 3.00998,2.22 2.62005,7.02022 6.06008,8.72022 1.17,-6.22 0.23002,-12.65069 0.51997,-18.95069 -22.90995,-0.01 -45.82042,0.01 -68.73044,0 z"
       id="path19"
       inkscape:label="T" /><path
       d="m 829.96876,341.63369 c -6.8766,-0.0346 -13.74555,1.59473 -19.70805,5.09472 -7.94002,4.52001 -14.0997,12.56026 -15.21975,21.76026 -0.78997,5.1 0.3795,10.2195 2.16945,14.97949 0.23003,0.33 0.7107,0.98983 0.9507,1.31983 5.40998,10.63 17.19885,16.94066 28.85888,17.68066 10.14,0.66 21.35107,-1.74058 28.37107,-9.60059 2.45003,-2.97 5.0787,-6.42949 4.90875,-10.47949 -2.46,2.42001 -3.9591,5.67928 -6.76905,7.75928 -8.38005,7.04 -21.9006,6.08 -29.62065,-1.5 -10.35,-9.89 -8.93025,-29.16899 2.6997,-37.45898 7.32,-5.18001 18.21075,-4.06045 24.49073,2.28954 2.95005,2.65001 4.51057,6.37002 6.83062,9.52002 0.90998,-5.89999 0.51983,-11.97078 -0.6402,-17.80077 -2.37997,0.19999 -4.71007,0.84087 -7.1001,0.90087 -2.77995,-0.54999 -5.34022,-1.8499 -8.03025,-2.6499 -3.9375,-1.17375 -8.06595,-1.79414 -12.19185,-1.81494 z"
       id="path18"
       inkscape:label="C" /><path
       d="m 707.43608,340.18789 c 0.89,2.03 1.78991,4.07037 2.6499,6.13037 -2.35999,5.11 -4.66012,10.24016 -6.87011,15.41015 -0.44,0.97001 -0.89008,1.9304 -1.33008,2.9004 -4.27,9.48999 -8.4395,19.02 -12.7295,28.5 -1.26,2.82999 -3.59109,5.24961 -6.62109,6.0996 -1.86,0.86001 -4.71879,0.74948 -5.25879,3.20948 7.45,0.32 14.91963,0.0399 22.36963,0.16992 1.68,-0.24 3.95957,0.59106 5.05958,-1.16894 -2.89001,-2.08 -8.27052,-1.63135 -9.02052,-5.88135 0.20001,-4.7 3.06056,-8.74902 4.81055,-12.99903 8.61001,0.14001 17.21985,-0.0109 25.83985,0.0791 1.47999,3.65 3.45031,7.12015 4.57031,10.91016 0.74,2.22999 -0.50932,4.80042 -2.79932,5.44042 -2.01,1.07 -5.29059,0.79028 -5.85058,3.53027 13.6,0.05 27.21052,0.21918 40.81057,-0.0908 -0.59002,-2.45001 -3.46057,-2.35998 -5.33062,-3.22998 -3.36,-0.91001 -5.66963,-3.78967 -6.90968,-6.90967 -7.70992,-17.37 -15.4599,-34.7301 -23.18991,-52.1001 -6.73998,-0.01 -13.47019,-0.01 -20.20019,0 z m 5.90918,13.31983 c 3.43,7.71999 6.88078,15.42039 10.30078,23.15038 h -20.60009 c 3.42,-7.72 6.84931,-15.44038 10.29931,-23.15038 z"
       id="path17"
       inkscape:label="A" /><path
       d="m 584.44892,341.62783 c -1.39922,-0.005 -2.80599,0.0478 -4.021,0.82031 1.63001,1.29 3.57044,2.04969 5.44043,2.92969 3.42,1.6 5.41936,5.44088 5.33936,9.15088 0.03,11.66 0.01,23.32951 0,34.99951 0.19,4.56 -3.41891,8.45969 -7.6289,9.67969 -1.83,0.92 -4.9102,0.71055 -5.2002,3.31054 15.3,0.10001 30.59941,0.10023 45.89941,0.0103 -0.16,-2.33 -2.69033,-2.32076 -4.34033,-3.03076 -4.05,-1.02 -7.85916,-4.17902 -8.38916,-8.49902 -0.27,-4.11 -0.0301,-8.23131 -0.12012,-12.34131 6.76,0 13.79943,0.3309 20.16944,-2.3291 5.59999,-2.17 11.08995,-6.01084 13.20996,-11.86084 1.86,-4.97 0.0799,-10.67936 -3.58008,-14.33936 -5.77,-5.9 -14.26912,-8.36973 -22.34913,-8.46972 -11.01,-0.05 -22.031,0.0292 -33.041,-0.0308 -0.4575,0.01 -0.92227,0.002 -1.38868,0 z m 27.00879,4.27002 c 5.83,0.33 11.01109,4.54965 12.62109,10.13965 1.67,5.28 -0.28039,11.29065 -4.40039,14.91064 -1.24,0.61001 -2.37097,1.38065 -3.50098,2.16065 -1.53999,0.52 -3.10947,0.88914 -4.70947,1.11914 -0.05,-9.45 -0.0302,-18.89008 -0.0103,-28.33008 z"
       id="path16"
       inkscape:label="P" /><path
       d="m 477.83956,341.63808 c -0.0203,6.13001 0.0292,12.25086 -0.0308,18.38087 1.2,0.12 2.4009,0.009 2.69093,-1.4209 1.31002,-2.84 2.39895,-6.02954 5.20897,-7.76954 4.76003,-3.48 10.9602,-2.09961 16.4502,-2.3496 -0.01,13.69999 0.0195,27.38886 -0.0105,41.08886 0.17003,4.65 -3.59865,8.58975 -7.90867,9.73975 -1.77998,0.81 -4.5303,0.76107 -5.03025,3.10107 15.42,0.18 30.89932,0.51008 46.29929,-0.16992 -2.1,-3.28 -6.52503,-2.63566 -9.59032,-5.23095 -1.6099,-0.78945 -3.3753,-2.92883 -3.65918,-8.52108 0.009,-13.3371 0.059,-26.66996 0.13065,-40.00773 5.91998,0.18 12.90008,-1.22036 17.6001,3.38964 3.00998,2.22 2.62005,7.02022 6.06008,8.72022 1.17,-6.22 0.23002,-12.65069 0.51997,-18.95069 -22.90995,-0.01 -45.82042,0.01 -68.73044,0 z"
       id="path25"
       inkscape:label="T"
       sodipodi:nodetypes="sccccccccccccccss" /><path
       d="m 410.82667,341.62903 a 35.263756,30.398369 0 0 0 -35.26671,30.39466 35.263756,30.398369 0 0 0 35.26671,30.40263 35.263756,30.398369 0 0 0 35.25877,-30.40263 35.263756,30.398369 0 0 0 -35.25877,-30.39466 z m -0.008,4.41829 a 15.180966,25.977941 0 0 1 15.18141,25.97637 15.180966,25.977941 0 0 1 -15.18141,25.98434 15.180966,25.977941 0 0 1 -15.18142,-25.98434 15.180966,25.977941 0 0 1 15.18142,-25.97637 z"
       id="path23"
       inkscape:label="O" /><path
       d="m 308.57787,341.62903 a 35.263756,30.398369 0 0 0 -35.26672,30.39466 35.263756,30.398369 0 0 0 35.26672,30.40263 35.263756,30.398369 0 0 0 35.25876,-30.40263 35.263756,30.398369 0 0 0 -35.25876,-30.39466 z m -0.008,4.41829 a 15.180966,25.977941 0 0 1 15.18142,25.97637 15.180966,25.977941 0 0 1 -15.18142,25.98434 15.180966,25.977941 0 0 1 -15.18141,-25.98434 15.180966,25.977941 0 0 1 15.18141,-25.97637 z"
       id="path24"
       inkscape:label="O" /><path
       d="m 69.984505,99.283661 c -0.34328,0.0012 -0.60296,-0.0017 -0.98651,-0.0017 0,-0.4323 0.87432,-0.794991 1.33475,-0.918364 0.83907,-0.392544 1.32959,-1.334866 1.30996,-2.245078 0.007,-2.860666 0.002,-5.723665 0,-8.586784 0.0466,-1.118751 -0.83879,-2.075502 -1.87167,-2.374817 -0.44897,-0.225712 -1.20467,-0.174326 -1.27582,-0.812208 3.7537,-0.02454 7.73665,-0.02459 11.49036,-0.0025 0.85081,0 2.15,0.05824 3.03067,0.566698 1.13367,0.654525 2.35271,2.247242 0.34437,4.255582 -0.79081,0.790811 -2.11129,1.13033 -2.71657,1.292515 0.44864,0.120213 0.55086,0.153273 0.9086,0.313163 1.3739,0.532388 2.72081,1.4747 3.24093,2.90994 0.45633,1.21934 0.0196,2.620075 -0.87834,3.51802 -1.41561,1.447507 -3.50079,2.053431 -5.48314,2.077962 -2.70119,0.01227 -5.40508,-0.0072 -8.10628,0.0076 -0.11224,-0.0025 -0.22627,-4.91e-4 -0.3407,0 z m 6.62634,-1.047607 c 1.43033,-0.08096 2.70146,-1.116212 3.09646,-2.487663 0.40972,-1.295396 -0.0688,-2.770049 -1.07959,-3.658178 -0.21139,-0.211388 -0.5091,-0.436357 -0.85893,-0.530094 -0.37782,-0.127577 -0.76303,-0.218142 -1.15557,-0.27457 -0.0123,2.318464 -0.007,4.634494 -0.003,6.950505 z m -0.0127,-8.324218 c 0.33478,0 1.28906,0.01656 1.97641,-0.670797 0.90282,-0.902817 1.15184,-2.119804 -0.0922,-3.363819 -0.53185,-0.531845 -1.50117,-0.517708 -1.86915,-0.517708 -0.0123,2.318464 0.0111,2.236313 0.0151,4.552324 z"
       id="path26"
       sodipodi:nodetypes="ccccccccssccccccccscccccssccccs"
       inkscape:label="B"
       transform="matrix(4.0759742,0,0,4.0759742,-104.77387,-2.0815743)" /></g><g
     id="g13"
     inkscape:label="Grubshin"
     transform="translate(2.3867796,-1.4496328)"><path
       d="m 1161.5502,89.598537 c -8.61,0.939997 -16.9592,3.629745 -25.4692,5.239747 -23.17,5.179996 -46.3703,10.250466 -69.5303,15.480466 -1.34,-0.01 -3.6796,1.84879 -1.8295,3.00879 5.4199,2.01 11.7696,2.5208 15.9096,7.0708 5.6,5.16 5.8392,20.2793 5.8392,20.2793 v 71.72021 c 0,0 -66.7865,-55.89639 -100.04934,-84 -13.60005,1.97 -27.18007,4.05975 -40.79002,5.98975 -2.13008,0.68 -6.56993,-0.27963 -6.16995,3.13037 3.42997,3.07 8.7297,2.23045 12.67965,4.46045 6.95002,3.03 10.57139,10.80942 9.86136,18.14941 -0.0797,34.05023 0.003,68.10038 0,102.15088 0.3,5.6 -0.13209,11.34898 -2.68189,16.45899 -2.79997,5.16 -7.13925,9.48045 -12.48922,11.96044 -2.35005,1.32 -5.17965,1.97948 -7.07963,3.95948 -0.93,2.43 2.30933,2.12115 3.77933,2.18115 6.07995,-0.13 12.18075,0.19982 18.2607,-0.18018 h 0.56985 c 16.02,0.38 32.06985,0.0496 48.10996,0.15967 8.74,-0.19 17.5198,0.37996 26.2399,-0.29004 1.63,-1.87 -1.0702,-3.11026 -2.4302,-3.76025 -5.1801,-2.26001 -10.3195,-5.00027 -13.8795,-9.53027 -4.2,-5.32001 -5.5501,-18.88917 -5.5501,-18.88917 v -85.20995 l 71.6601,60.24902 c 0,0 -0.011,2.07123 -0.02,2.76123 0.31,7.77 1.11,15.62982 3.4599,23.06982 1.2701,4.71 3.0399,9.2889 5.2998,13.62891 2.5601,5.09 5.7006,9.90994 9.4806,14.18994 7.68,9.08 17.1352,15.76868 28.1352,20.29868 5.1346,0.7852 6.5545,0.62978 6.5545,0.62978 V 122.55752 c 0.39,-11.51 8.1009,-21.57926 17.6109,-27.489256 1.7,-1.56 5.2791,-2.599725 4.519,-5.469727 z"
       id="path13"
       inkscape:label="N"
       sodipodi:nodetypes="sccccccccccccccccccccccccccccccccccs" /><g
       id="g26"
       inkscape:label="I"
       transform="translate(36.999232)"><path
         d="m 867.79211,222.45709 c -0.02,8.69 -0.051,17.37982 -0.041,26.06982 l 0.3003,-0.54053 c 13.95,5.58001 27.4097,12.40016 39.9698,20.66016 -4.3401,-9.97 -10.4897,-19.09048 -17.6397,-27.25048 -6.53,-7.41 -14.2494,-13.69897 -22.5894,-18.93897 z"
         id="path11-6"
         inkscape:label="I dash after" /><path
         d="m 826.10671,158.09463 c -6.86497,0.007 -13.72477,0.0868 -20.57227,0.35303 0.03,0.49 0.10035,1.46092 0.13035,1.94092 5.37997,2.85999 12.16957,2.81945 16.82955,7.18945 4.5,3.42 5.94982,9.26015 5.29987,14.66015 l -0.13937,97.06934 c -2.00003,7.42 -9.3309,11.61074 -16.42088,13.01074 -2.25,0.83 -6.20932,0.85035 -6.02932,4.11035 2.48002,0.3 5.00025,0.32942 7.51027,0.14942 0.66998,-0.01 2.01945,-0.0296 2.68943,-0.0395 22.68,0.36 45.36959,0.0299 68.05957,0.16992 1.47,-0.09 4.4706,0.44928 3.83055,-1.99071 -2.76998,-2.20001 -6.5502,-2.27952 -9.7602,-3.49952 -7.99803,-3.33977 -13.31703,-9.6958 -12.66945,-22.76953 -0.0512,-37.39005 0.0242,-21.90092 -0.0308,-82.51025 0.25995,-4.78 -0.87945,-10.02981 1.87057,-14.2998 3.08003,-5.23 8.96918,-7.86038 14.67923,-9.13038 2.26995,-0.84 6.00112,-0.83928 6.1611,-4.00927 -9.00998,-0.79001 -18.07988,-0.1401 -27.10988,-0.3501 -11.43119,0.125 -22.88707,-0.0664 -34.32854,-0.0542 z"
         id="path12"
         inkscape:label="I char"
         sodipodi:nodetypes="ccccccccccccccccccccc" /><path
         d="m 808.59444,207.19033 c -1.72155,-0.0121 -3.44168,0.0776 -5.15918,0.30762 -1.75995,0.15 -3.291,1.03991 -4.77097,1.8999 0.87997,4.79 1.71082,10.19035 -0.88913,14.61035 -1.02,1.93 -3.16102,2.79963 -4.54102,4.36963 -4.71,0.45 -9.91905,3.32074 -12.24908,7.76074 -0.70995,0.85 -1.21087,2.90022 0.5391,2.72022 14.19,0.14 28.3905,0.91977 42.48045,2.75976 -0.0203,-1.91 -0.01,-3.8097 0,-5.6997 0,-3.28 -0.01,-6.55006 0,-9.81006 0,-5.68 -0.0203,-11.35002 0,-17.02002 -5.0775,-0.9 -10.24545,-1.86188 -15.41017,-1.89844 z"
         id="path10"
         inkscape:label="I dash before" /></g><path
       d="m 731.75988,158.09756 c -20.49997,0.22 -40.99972,-0.18932 -61.48972,0.20068 -0.19,3.75 4.30014,3.96945 6.64014,5.68946 6.08,3.75 6.95947,18.16113 6.95947,18.16113 l -0.0395,96.94922 c 0.71007,18.39202 -10.05694,24.2885 -18.67969,32.51952 16.97,0.42 31.43999,-10.0192 47.70997,-13.1792 6.27,-1.02001 12.57945,-1.85049 18.95947,-1.75049 1.11998,-3.15 -2.73,-3.95957 -4.79002,-5.05957 -5.39003,-2.35 -8.17905,-8.31067 -8.499,-13.93066 -0.0278,-4.61054 0.10439,-23.90273 -0.0907,-29.47998 0.1,-4.23 3.5397,-8.23008 7.9497,-8.08008 14.05995,0.02 28.25129,0.10107 42.16987,0.10107 4.2494,0 6,3.47024 6,8.21372 0.0855,1.98166 -0.14109,16.23769 0.19048,28.83511 -0.27998,5.68 -2.92958,11.78 -8.3496,14.25 -2.13998,1.23 -5.87093,1.80033 -5.23095,5.09033 20.47005,0.08 40.96117,0.1607 61.43115,-0.0293 1.30005,-3.02 -2.5704,-3.7308 -4.4604,-4.82079 -5.4,-2.21001 -8.27055,-8.01006 -8.79053,-13.56006 0,-4.81001 0.0909,-9.63018 -0.0791,-14.43018 0.21,-7.32 0.1197,-14.65973 -0.0105,-21.96973 0.24,-8.31 0.11002,-16.63896 0,-24.93896 0.32002,-11.26 -0.0503,-22.52076 0.0894,-33.78076 0.01,-4.56 -0.26003,-9.38956 2.01997,-13.53955 1.56998,-3.35001 4.57073,-5.76984 7.99073,-7.08984 1.59,-0.76001 4.6299,-1.89022 3.16995,-4.22022 -20.46,-0.17 -40.9404,-0.17975 -61.4004,0.0103 -0.45,3.30001 3.32092,3.81938 5.4609,5.10938 5.22,2.42 7.62877,8.23967 8.19877,13.65967 -0.18,10.44 1.5e-4,20.89007 -0.10987,31.33007 0.18365,3.96389 -3.52457,8.17409 -8.23973,7.94092 -13.04002,0.02 -26.06992,-10e-4 -39.10987,0.009 -4.59045,0 -9.00349,-2.95132 -9.00349,-6.55229 0,-11.63155 0.22266,-23.54408 0.22266,-32.98374 0,-7.24447 0.74963,-9.66254 7.82963,-13.25253 2.1,-1.37001 6.66037,-1.94139 5.38035,-5.42139 z"
       id="path9"
       inkscape:label="H"
       sodipodi:nodetypes="cccccccccccccccccccccccccccccccccccccc" /><path
       d="m 600.28903,128.39199 c -2.84781,0.0173 -5.69608,0.22555 -8.53858,0.68555 -13.99,1.98 -27.36959,9.37025 -35.57959,21.01025 -2.99,4.41 -5.26033,9.28018 -6.59033,14.43018 l 0.0498,0.10986 c -2.48,9.91001 -1.16981,20.44975 2.20019,29.98975 l 0.10987,0.0205 c 2.34,6.49001 6.13959,12.39044 10.82959,17.44044 l 0.15087,-0.0103 c 5.96001,5.9 13.09028,10.52037 20.03028,15.13037 14.22,10.28 29.18984,19.49972 43.08984,30.21973 3.87,3.58 6.59892,8.29954 7.39893,13.53955 0.11,4.53999 -0.42912,9.09007 -2.09913,13.33008 -2.32999,5.01 -6.38017,9.18068 -11.43017,11.45068 -5.81,2.92 -12.48025,2.65895 -18.76025,1.91894 -2.99,-0.48999 -5.94938,-1.13919 -8.85938,-1.9292 -5.73,-1.8 -11.11984,-4.49959 -16.08984,-7.82959 -1.72,-1.34 -3.42033,-2.68029 -5.09034,-4.05029 l -2.35986,-2.08008 c -1.53,-1.57 -3.0498,-3.14023 -4.5498,-4.74023 -3.13,-3.62 -6.0001,-7.44973 -8.6001,-11.46973 -4.18,-6.07 -6.78102,-13.13998 -11.29101,-18.97998 -1.72001,6.14 -1.66953,12.58967 -1.76954,18.90967 0.04,1.93 0.04,3.86932 0.22998,5.79931 0.31001,5.69001 1.06031,11.36042 2.32031,16.92042 1.75001,7.02999 4.41927,14.08064 9.48927,19.41064 7.41,-4.49 16.8312,-3.88105 24.74121,-1.08106 12.97999,4.16001 26.84962,5.10122 40.36962,3.74121 6.28,-0.60999 12.42984,-2.16987 18.33985,-4.37988 8.01,-3.36 15.14988,-8.80093 20.12988,-15.96093 4.48,-6.66 7.25949,-14.42988 8.2295,-22.37988 l 0.13036,0.0806 c 0.57,-4.37 0.7495,-8.78066 0.7295,-13.18066 -0.29001,-9.36 -2.6391,-18.72951 -7.57911,-26.74952 -3.06,-4.81999 -6.89996,-9.06004 -10.95996,-13.04003 -10.05,-8.4 -21.16086,-15.39991 -31.88085,-22.89991 -9.73001,-6.72 -19.68899,-13.10988 -29.20899,-20.12988 -5.69,-4.59999 -9.74992,-11.71047 -8.41992,-19.23047 0.98,-4.14 3.01917,-8.21011 6.65918,-10.62011 6.33,-4.32 14.46006,-4.43944 21.81006,-3.66944 9.39,0.99 18.24997,5.73909 24.22998,13.05909 l 0.0996,-0.009 c 3.87,4.7 6.09013,10.47889 9.64014,15.35889 6.9,5.01 14.19069,10.10021 22.47069,12.47021 0.13001,-4.17999 -1.57044,-8.05014 -2.96044,-11.89014 -2.2,-5.65995 -4.44972,-11.30955 -6.96972,-16.82955 -3.12,-6.45999 -6.77069,-12.66039 -10.70069,-18.65039 -5.63,2.71001 -11.95881,1.53094 -17.77881,0.21094 -8.3325,-1.8225 -16.86867,-3.49881 -25.4121,-3.44678 z"
       id="path8"
       inkscape:label="S" /><path
       d="m 398.59051,296.09048 c -3.10757,0.0109 -5.45831,-0.0152 -8.93045,-0.0152 0,-3.91348 7.91489,-7.19676 12.08291,-8.3136 7.59581,-3.55355 12.03624,-12.08407 11.8585,-20.32389 0.0636,-25.89644 0.0177,-51.8141 0,-77.73285 0,-10.30581 0.1808,-19.77667 -5.59037,-21.38035 -4.19062,-1.28332 -7.28257,-1.69601 -7.92666,-7.47054 33.98054,-0.22212 55.06069,-0.22254 89.04133,-0.023 7.70199,0 19.46297,0.52721 27.43527,5.13015 10.26262,5.9251 21.29806,20.34334 3.11745,38.52408 -7.15886,7.15894 -19.11262,10.23249 -24.59194,11.70069 4.06139,1.08822 4.98673,1.3875 8.22514,2.83489 12.4373,4.81954 24.63025,13.34988 29.33875,26.34261 4.1309,11.03815 0.17742,23.71847 -7.95124,31.84723 -12.8149,13.10374 -31.69106,18.58894 -49.63642,18.81099 -24.45264,0.11109 -48.92972,-0.0656 -73.38253,0.0691 -1.01602,-0.023 -2.0483,-0.004 -3.08418,0 z m 59.98534,-9.48362 c 12.94809,-0.73286 24.4551,-10.10458 28.03084,-22.51981 3.70902,-11.72675 -0.62279,-25.07623 -9.77304,-33.11605 -1.91362,-1.91364 -4.60864,-3.95019 -7.77547,-4.79875 -3.4203,-1.15495 -6.90744,-1.9748 -10.46089,-2.48556 -0.1113,20.98815 -0.0634,41.95424 -0.0271,62.92017 z m -0.11511,-75.35593 c 3.03062,0 11.66928,0.14992 17.89156,-6.07241 8.17286,-8.17288 10.42714,-19.1898 -0.83466,-30.45142 -4.81456,-4.81457 -13.58936,-4.68658 -16.92053,-4.68658 -0.11131,20.98817 0.1006,20.2445 0.13679,41.21041 z"
       id="path51"
       sodipodi:nodetypes="ccccccccssccccccccscccccssccccs"
       inkscape:label="B" /><path
       id="path33"
       d="m 336.7178,160.89522 c -6.86495,0.007 -6.69523,0.092 -13.54271,0.35824 0.03,0.49 0.0974,1.46245 0.12738,1.94245 5.37995,2.85999 5.56649,1.36812 10.22645,5.73811 4.5,3.42 5.52654,10.70658 4.87659,16.10657 0.25559,207.36977 -0.33753,-109.144354 -0.0159,75.17466 0,11.44183 -5.29853,27.87597 -25.71367,27.87597 -17.41142,0 -25.5624,-13.54511 -25.5624,-27.20726 -0.19558,-145.89198 0.25957,77.47231 -0.0319,-71.8072 0.12739,-2.34238 -0.27742,-13.62858 2.84129,-18.04932 3.39399,-4.02914 6.43921,-5.8251 10.61485,-6.75382 2.26993,-0.84 2.10215,0.53991 2.26213,-2.63008 -9.00996,-0.79001 -11.0827,-0.14028 -20.11268,-0.35028 -11.43117,0.125 -22.88589,-0.0679 -34.32734,-0.0557 -6.86497,0.007 -13.7314,0.084 -20.5789,0.35028 0.03,0.48999 0.10534,1.46245 0.13534,1.94245 5.37995,2.85999 12.16935,2.81869 16.82931,7.18868 4.5,3.42 5.95191,9.26397 5.30196,14.66396 0.16046,21.41149 -0.12546,42.82519 0.0318,64.23639 4.05525,44.84473 54.95292,49.74144 62.61238,50.22525 27.7104,-0.0229 59.96582,-17.89403 62.77159,-50.24913 3.2e-4,-0.0823 -3.4e-4,-0.16452 0,-0.24679 -0.014,-12.598 0.007,-35.17566 -0.016,-60.60623 0.25995,-4.77999 -0.3304,-12.02169 0.47285,-16.60979 3.45399,-4.56148 4.50573,-5.45733 8.02705,-6.8191 2.26995,-0.84 6.00175,-0.8423 6.16173,-4.01229 -9.00996,-0.79 -10.03402,-0.14028 -19.064,-0.35028 -11.43117,0.125 -22.8859,-0.0679 -34.32735,-0.0557 z"
       sodipodi:nodetypes="ccccccccccccccccccccccccccccc"
       inkscape:label="U" /><path
       d="m 116.02349,148.85685 c 3.61721,3.19224 8.47928,6.74445 11.68658,10.84272 5.6612,6.81562 5.73099,19.20432 5.54874,27.65613 0.0331,12.80625 0.0434,23.6076 0.0398,36.42205 10.54301,-7.049 20.81064,-7.55552 34.78111,-10.15113 l -0.0239,-45.93432 c 1.53825,-0.11094 2.65097,-0.0937 2.65097,-0.10349 13.33163,0.557 20.01282,16.18897 19.32904,26.20724 0.0378,12.7675 -10.42216,21.12342 -21.95609,23.83491 v -0.0239 c -19.08969,3.61267 -27.47526,5.89714 -34.78111,12.17219 v 0.008 c -3.74788,3.6081 -6.30888,5.81493 -9.14706,9.03561 -7.15005,8.15999 -13.29337,17.28012 -17.63336,27.25012 8.54653,-5.62061 17.5058,-10.57654 26.75653,-14.92667 -0.005,5.31526 -0.0114,10.63014 -0.0159,15.94566 0,23.75265 0.008,29.35975 0.008,29.35975 0,0 -0.40831,0.45953 34.44676,0.25475 -0.18999,-14.28914 0.0394,-42.88781 -0.26271,-57.17509 4.49834,-2.3466 8.15945,-4.22073 11.38407,-5.85125 3.84496,7.82689 19.05833,38.78503 26.69286,54.14199 0,0 5.83435,9.49132 14.7754,9.35404 l 30.20361,-0.008 c 0,0 -0.62794,-2.08738 -2.56341,-4.48994 -1.93546,-2.40259 -8.8699,-0.47751 -12.14831,-7.42751 -11.94052,-25.31309 -28.44948,-59.70366 -31.10319,-65.2315 4.16526,-2.39806 19.49037,-12.85877 18.30208,-36.40514 -0.58402,-11.57307 -11.21137,-22.9126 -26.69285,-25.57833 -15.48152,-2.66574 -46.1993,-3.22518 -65.06433,-6.69511 -4.9274,-1.07887 -10.3277,-2.48206 -15.21326,-2.48379 z"
       id="path52"
       inkscape:label="R"
       sodipodi:nodetypes="cccccccccccccccccccccccsscsscsc" /><path
       d="m 4.4457786,77.110744 c -7.1211888,-0.04275 -14.2438499,0.61746 -21.2329106,2.006835 -24.269995,4.880003 -46.150719,19.310783 -61.240719,38.800781 -8.34,10.82 -14.800182,23.07961 -18.930175,36.09961 -4.290004,13.52 -6.230164,27.79045 -5.660164,41.96045 0.33001,7.53 1.2402,15.03988 2.950208,22.37988 1.249998,5.51 2.899896,10.91996 4.899894,16.20996 l 0.10986,0.0498 c 2.860006,7.86001 6.800322,15.29983 11.320316,22.31983 0.670005,0.66 1.00059,2.20969 2.100585,2.17969 l -0.499508,0.12012 c 6.180001,8.97999 13.719706,17.00083 22.19971,23.86083 l 0.29004,0.0103 c 7.909995,6.57 17.019838,11.6599 26.589836,15.3999 13.540002,5.38 28.2502535,7.40944 42.760266,6.66943 23.569991,-0.87999 47.749652,-5.51013 68.119657,-17.89013 6.239998,-3.22 11.860204,-7.80012 16.740225,-12.87012 0.03,-5.02 0.0291,-10.0398 0.0791,-15.04981 -0.01,-7.87999 0.131155,-15.75939 -0.0689,-23.62938 0.300005,-5.15001 -0.51116,-10.50991 1.568849,-15.39991 l -0.18018,0.23877 c 2.109992,-3.95 5.421422,-7.26973 9.461422,-9.21973 3.67,-2.01999 8.30959,-2.04978 11.57959,-4.77978 -0.03,-0.55 -0.10038,-1.65019 -0.13038,-2.2002 -2.71999,-0.38001 -5.45994,-0.23025 -8.18994,-0.24025 -33.319975,0.02 -66.639475,-0.01 -99.9594766,0.0205 -1.9800031,-0.51 -4.4611648,1.33965 -2.9311554,3.38966 2.3600053,2.28 5.910913,2.60008 8.920915,3.58007 9,1.87001 17.750418,6.06096 23.440417,13.48096 1.789995,3.42 3.588865,7.00875 3.588865,10.96875 0.12,11.73 -0.0994,23.45115 0.0806,35.18115 -0.43,6.02 -0.45981,12.26912 -3.049805,17.84912 -4.720002,5.17 -12.43033,2.97004 -18.590327,3.29004 -10.6200068,-1.58 -20.62014588,-6.36 -28.6201386,-13.5 -7.4399984,-6.59 -13.4398544,-14.68896 -18.1098574,-23.43896 -4.160001,-7.94001 -7.330386,-16.36074 -9.650391,-25.01075 -1.219994,-5.04 -2.200056,-10.13023 -3.060059,-15.24023 -1.059997,-9.12 -1.599449,-18.30022 -1.189447,-27.47021 0.669997,-11.52 2.550015,-22.96004 5.770019,-34.04004 l 0.139155,-0.009 c 3.590002,-12.09 9.230233,-23.57045 16.740236,-33.71045 4.860001,-5.94 10.2409342,-11.55 16.71092243,-15.75 C 9.9629662,96.498232 23.573083,93.457319 36.183065,96.537314 c 13.610025,3.130005 24.900076,12.440766 33.290082,23.280766 5.449998,7.31 9.819007,15.36957 13.228996,23.80957 1.499999,3.94 2.920999,7.90974 4.020998,11.98974 0.759994,2.49 1.088642,5.33092 3.118627,7.19092 3.350001,-6.26 2.650406,-13.66074 3.420411,-20.51074 0.380005,-6.88 0.551035,-13.7699 0.561045,-20.6499 -0.25001,-6.93 0.12916,-14.08951 -2.110865,-20.74951 C 79.272404,101.21815 67.462887,96.698309 56.712889,90.808312 40.828485,81.924562 22.644363,77.219834 4.4457586,77.110559 Z"
       id="path4"
       inkscape:label="G" /></g><g
     id="g1"
     inkscape:label="Horns"><path
       id="path5"
       d="m 716.08367,9.4807469 c 67.49353,-4.05e-4 122.21266,54.0833401 122.21211,120.7985031 -0.44616,7.75273 -1.76814,16.97817 -8.08851,27.89403 -6.12413,-20.77059 -32.59156,-31.98697 -55.52347,-23.40377 1.84308,-14.64482 -1.45698,-38.066948 -17.36384,-57.972699 -13.8757,-17.363968 -34.57129,-28.395499 -57.70812,-28.39294 -6.46984,0.005 -12.91313,0.893567 -19.17053,2.638215 -7.05569,1.994906 -14.42928,2.228052 -21.69535,2.81208 -11.05823,0.913318 -22.51999,-3.059474 -24.62082,-3.832593 -2.16145,-0.911198 -4.14966,-2.165297 -5.86606,-3.704085 -5.48228,-5.013161 -7.0148,-11.754448 -6.05505,-17.159738 3.30871,3.003474 8.15727,4.761569 13.28935,4.822869 9.47367,-0.401561 16.97357,-7.093301 25.11218,-11.301237 22.03808,-11.096077 42.7805,-13.1710284 55.47811,-13.1986351 z"
       sodipodi:nodetypes="ccccsccccccccc"
       inkscape:label="Horn left" /><path
       id="path7"
       d="M 341.62794,9.4807469 C 274.13441,9.4803419 219.41528,63.564087 219.41583,130.27925 c 0.44616,7.75273 1.76814,16.97817 8.08851,27.89403 6.12413,-20.77059 32.59156,-31.98697 55.52347,-23.40377 -1.84308,-14.64482 1.45698,-38.066948 17.36384,-57.972699 13.8757,-17.363968 34.57129,-28.395499 57.70812,-28.39294 6.46984,0.005 12.91313,0.893567 19.17053,2.638215 7.05569,1.994906 14.42928,2.228052 21.69535,2.81208 11.05823,0.913318 22.51999,-3.059474 24.62082,-3.832593 2.16145,-0.911198 4.14966,-2.165297 5.86606,-3.704085 5.48228,-5.013161 7.0148,-11.754448 6.05505,-17.159738 -3.30871,3.003474 -8.15727,4.761569 -13.28935,4.822869 C 412.74456,33.579058 405.24466,26.887318 397.10605,22.679382 375.06797,11.583305 354.32555,9.5083536 341.62794,9.4807469 Z"
       sodipodi:nodetypes="ccccsccccccccc"
       inkscape:label="Horn left" /></g></g></svg>
